<?xml version="1.0" encoding="UTF-8" standalone="no"?>
<!-- Created with Inkscape (http://www.inkscape.org/) -->

<svg
   xmlns:dc="http://purl.org/dc/elements/1.1/"
   xmlns:cc="http://creativecommons.org/ns#"
   xmlns:rdf="http://www.w3.org/1999/02/22-rdf-syntax-ns#"
   xmlns:svg="http://www.w3.org/2000/svg"
   xmlns="http://www.w3.org/2000/svg"
   xmlns:sodipodi="http://sodipodi.sourceforge.net/DTD/sodipodi-0.dtd"
   xmlns:inkscape="http://www.inkscape.org/namespaces/inkscape"
   width="277.60812"
   height="80"
   viewBox="0 0 73.450491 21.166667"
   version="1.1"
   id="svg8"
   inkscape:version="0.92.4 (5da689c313, 2019-01-14)"
   sodipodi:docname="hei-light.svg">
  <defs
     id="defs2" />
  <sodipodi:namedview
     id="base"
     pagecolor="#ffffff"
     bordercolor="#666666"
     borderopacity="1.0"
     inkscape:pageopacity="0.0"
     inkscape:pageshadow="2"
     inkscape:zoom="1.4"
     inkscape:cx="344.88198"
     inkscape:cy="35.28523"
     inkscape:document-units="mm"
     inkscape:current-layer="layer1"
     showgrid="false"
     fit-margin-top="0"
     fit-margin-left="0"
     fit-margin-right="0"
     fit-margin-bottom="0"
     inkscape:window-width="1718"
     inkscape:window-height="1368"
     inkscape:window-x="1713"
     inkscape:window-y="40"
     inkscape:window-maximized="0"
     units="px" />
  <metadata
     id="metadata5">
    <rdf:RDF>
      <cc:Work
         rdf:about="">
        <dc:format>image/svg+xml</dc:format>
        <dc:type
           rdf:resource="http://purl.org/dc/dcmitype/StillImage" />
        <dc:title></dc:title>
      </cc:Work>
    </rdf:RDF>
  </metadata>
  <g
     inkscape:label="Layer 1"
     inkscape:groupmode="layer"
     id="layer1"
     transform="translate(-5.5436528,-72.951231)">
    <g
       transform="matrix(0.14690097,0,0,-0.14690097,5.5436528,94.117898)"
       inkscape:label="ink_ext_XXXXXX"
       id="g823">
      <g
         transform="scale(0.1)"
         id="g825">
        <path
           inkscape:connector-curvature="0"
           id="path827"
           style="fill:#aa9f93;fill-opacity:1;fill-rule:nonzero;stroke:none"
           d="m 2889.23,703.863 c 0,18.969 4.02,27.27 17.33,54.785 0.79,1.711 270.54,576.122 270.54,576.122 18.48,38.26 36.27,74.85 77.29,74.85 34.48,0 60.44,-26.09 60.44,-60.56 0,-19.09 -6.02,-33.58 -12.57,-47.83 0,0 -281.49,-596.55 -281.65,-596.957 -15.51,-30.976 -31.51,-63.046 -71.88,-63.046 -33.29,0 -59.5,27.554 -59.5,62.636 m 261.17,647.477 c -1.54,-3.3 -271.4,-577.711 -271.4,-577.711 -14.64,-30.449 -20.99,-43.715 -20.99,-69.766 0,-52.629 39.82,-93.855 90.72,-93.855 59.54,0 82.91,46.398 99.92,80.344 l 281.82,597.608 c 7.93,17.02 15.62,35.62 15.62,61.1 0,51.36 -40.38,91.82 -91.7,91.82 -60.68,0 -85.71,-51.77 -103.99,-89.54" />
        <path
           inkscape:connector-curvature="0"
           id="path829"
           style="fill:#aa9f93;fill-opacity:1;fill-rule:nonzero;stroke:none"
           d="m 3147.55,703.863 c 0,18.969 3.99,27.27 17.34,54.785 0.77,1.711 270.58,576.122 270.58,576.122 18.52,38.22 36.25,74.85 77.25,74.85 34.44,0 60.63,-26.09 60.63,-60.56 0,-19.09 -6.01,-33.58 -12.82,-47.78 0,0 -281.35,-596.479 -281.67,-596.928 -15.39,-31.055 -31.39,-63.125 -71.84,-63.125 -33.42,0 -59.47,27.593 -59.47,62.636 m 261.18,647.437 c -1.58,-3.26 -271.42,-577.671 -271.42,-577.671 -14.59,-30.488 -21.01,-43.715 -21.01,-69.766 0,-52.629 39.9,-93.855 90.72,-93.855 59.83,0 83.03,46.398 99.96,80.508 l 281.88,597.444 c 7.62,16.21 15.6,35.62 15.6,61.1 0,51.36 -40.29,91.82 -91.74,91.82 -60.73,0 -85.72,-51.81 -103.99,-89.58" />
        <path
           inkscape:connector-curvature="0"
           id="path831"
           style="fill:#aa9f93;fill-opacity:1;fill-rule:nonzero;stroke:none"
           d="m 3732.75,1312.1 c -2.03,5.37 -2.89,9.44 -2.89,15.18 0,17.26 15.19,29.63 31.55,29.63 13.98,0 22.62,-9.03 28.08,-20.14 l 63.58,-170.83 63.74,170.83 c 5.28,11.11 13.95,20.14 27.92,20.14 16.48,0 31.56,-12.37 31.56,-29.63 0,-5.74 -0.84,-9.81 -2.83,-15.18 l -89.95,-228.78 c -5.41,-13.11 -12.42,-23.85 -30.44,-23.85 -18.08,0 -25.08,10.74 -30.45,23.85 l -89.87,228.78" />
        <path
           inkscape:connector-curvature="0"
           id="path833"
           style="fill:#aa9f93;fill-opacity:1;fill-rule:nonzero;stroke:none"
           d="m 4032.6,1163.34 h 78.06 l -38.26,119.05 h -0.73 z m -4.52,149.09 c 6.96,18.8 22.99,34.02 43.85,34.02 21.88,0 37.06,-14.36 44.03,-34.02 l 80.52,-223.49 c 2.5,-6.64 3.28,-12.33 3.28,-15.27 0,-15.95 -13.03,-27.06 -28.33,-27.06 -17.22,0 -25.84,9.07 -29.99,21.37 l -12.38,38.62 h -114.13 l -12.41,-38.21 c -4.11,-12.71 -12.66,-21.78 -29.42,-21.78 -16.45,0 -30.37,12.29 -30.37,28.69 0,6.72 2,11.6 2.73,13.64 l 82.62,223.49" />
        <path
           inkscape:connector-curvature="0"
           id="path835"
           style="fill:#aa9f93;fill-opacity:1;fill-rule:nonzero;stroke:none"
           d="m 4227.23,1311.98 c 0,20.56 13.27,32.07 30.81,32.07 17.7,0 30.86,-11.51 30.86,-32.07 v -206.16 h 73.13 c 20.92,0 30,-15.66 29.63,-29.54 -0.85,-13.64 -11.64,-27.19 -29.63,-27.19 h -102.77 c -20.06,0 -32.03,13.15 -32.03,33.7 v 229.19" />
        <path
           inkscape:connector-curvature="0"
           id="path837"
           style="fill:#aa9f93;fill-opacity:1;fill-rule:nonzero;stroke:none"
           d="m 4495.09,1163.34 h 78.14 l -38.22,119.05 h -0.9 z m -4.48,149.09 c 7.02,18.8 22.95,34.02 43.91,34.02 21.86,0 36.95,-14.36 44,-34.02 L 4659,1088.94 c 2.46,-6.64 3.32,-12.33 3.32,-15.27 0,-15.95 -13.2,-27.06 -28.4,-27.06 -17.18,0 -25.81,9.07 -29.92,21.37 l -12.5,38.62 h -114.04 l -12.35,-38.21 c -4.09,-12.71 -12.81,-21.78 -29.65,-21.78 -16.37,0 -30.28,12.29 -30.28,28.69 0,6.72 2.07,11.6 2.93,13.64 l 82.5,223.49" />
        <path
           inkscape:connector-curvature="0"
           id="path839"
           style="fill:#aa9f93;fill-opacity:1;fill-rule:nonzero;stroke:none"
           d="m 4689.79,1311.98 c 0,20.56 13.24,32.07 30.8,32.07 17.72,0 30.87,-11.51 30.87,-32.07 v -233.26 c 0,-20.63 -13.15,-32.07 -30.87,-32.07 -17.56,0 -30.8,11.44 -30.8,32.07 v 233.26" />
        <path
           inkscape:connector-curvature="0"
           id="path841"
           style="fill:#aa9f93;fill-opacity:1;fill-rule:nonzero;stroke:none"
           d="m 4974.13,1304.69 c 0,-15.91 -10.7,-30.32 -27.64,-30.32 -16.84,0 -29.91,12.34 -54.53,12.34 -17.7,0 -33.72,-9.45 -33.72,-26.7 0,-42.3 137.26,-15.23 137.26,-121.17 0,-58.73 -48.54,-95.32 -105.21,-95.32 -31.67,0 -99.71,7.44 -99.71,46.03 0,15.95 10.59,29.14 27.47,29.14 19.21,0 42.24,-15.99 68.9,-15.99 27.17,0 41.89,15.13 41.89,35.32 0,48.44 -137.08,19.3 -137.08,114.58 0,57.47 47.17,93.16 101.95,93.16 22.87,0 80.42,-8.58 80.42,-41.07" />
        <path
           inkscape:connector-curvature="0"
           id="path843"
           style="fill:#aa9f93;fill-opacity:1;fill-rule:nonzero;stroke:none"
           d="m 3702.37,946.402 c -1.29,5.371 -1.65,8.18 -1.65,14 0,13.149 10.99,27.11 29.2,27.11 19.77,0 29.21,-11.438 32.79,-29.629 l 34.97,-174.488 h 0.81 l 53.39,179.898 c 4.44,14.812 16.9,24.219 32.11,24.219 15.02,0 27.44,-9.407 31.96,-24.219 l 53.4,-179.898 h 0.89 l 34.89,174.488 c 3.74,18.191 13.14,29.629 32.76,29.629 18.19,0 29.14,-13.961 29.14,-27.11 0,-5.82 -0.32,-8.629 -1.59,-14 l -52.01,-224.179 c -4.15,-17.34 -17.75,-32.032 -40.82,-32.032 -20.03,0 -35.62,13.106 -40.63,29.997 l -47.61,158.406 h -0.9 l -47.58,-158.406 c -4.99,-16.891 -20.6,-29.997 -40.67,-29.997 -22.94,0 -36.58,14.692 -40.69,32.032 l -52.16,224.179" />
        <path
           inkscape:connector-curvature="0"
           id="path845"
           style="fill:#aa9f93;fill-opacity:1;fill-rule:nonzero;stroke:none"
           d="m 4145.87,806.797 h 78.14 l -38.26,119.133 h -0.62 z m -4.4,149.012 c 6.97,19.004 22.91,34.183 44.06,34.183 21.59,0 36.81,-14.328 43.87,-34.183 l 80.53,-223.371 c 2.4,-6.637 3.26,-12.29 3.26,-15.141 0,-16.035 -13.15,-27.106 -28.39,-27.106 -17.19,0 -25.83,8.95 -29.94,21.325 l -12.41,38.504 h -114.08 l -12.41,-38.176 c -4.13,-12.703 -12.86,-21.653 -29.64,-21.653 -16.36,0 -30.24,12.25 -30.24,28.692 0,6.515 2.12,11.48 2.86,13.555 l 82.53,223.371" />
        <path
           inkscape:connector-curvature="0"
           id="path847"
           style="fill:#aa9f93;fill-opacity:1;fill-rule:nonzero;stroke:none"
           d="m 4340.66,955.48 c 0,20.594 13.19,32.032 30.76,32.032 17.68,0 30.9,-11.438 30.9,-32.032 V 749.328 h 73.15 c 20.92,0 29.99,-15.672 29.44,-29.715 -0.71,-13.468 -11.49,-27.062 -29.44,-27.062 h -102.7 c -20.1,0 -32.11,13.226 -32.11,33.738 V 955.48" />
        <path
           inkscape:connector-curvature="0"
           id="path849"
           style="fill:#aa9f93;fill-opacity:1;fill-rule:nonzero;stroke:none"
           d="m 4523.92,955.48 c 0,20.594 13.13,32.032 30.71,32.032 17.7,0 30.87,-11.438 30.87,-32.032 V 749.328 h 73.12 c 20.79,0 29.99,-15.672 29.51,-29.715 -0.82,-13.468 -11.48,-27.062 -29.51,-27.062 h -102.64 c -20.11,0 -32.06,13.226 -32.06,33.738 V 955.48" />
        <path
           inkscape:connector-curvature="0"
           id="path851"
           style="fill:#aa9f93;fill-opacity:1;fill-rule:nonzero;stroke:none"
           d="m 4707.05,955.48 c 0,20.594 13.19,32.032 30.86,32.032 17.66,0 30.81,-11.438 30.81,-32.032 v -233.3 c 0,-20.512 -13.15,-32.032 -30.81,-32.032 -17.67,0 -30.86,11.52 -30.86,32.032 v 233.3" />
        <path
           inkscape:connector-curvature="0"
           id="path853"
           style="fill:#aa9f93;fill-opacity:1;fill-rule:nonzero;stroke:none"
           d="m 4978.61,948.844 c 0,-15.996 -10.66,-30.321 -27.59,-30.321 -16.77,0 -29.92,12.29 -54.62,12.29 -17.67,0 -33.67,-9.403 -33.67,-26.7 0,-42.285 137.27,-15.179 137.27,-121.168 0,-58.73 -48.46,-95.32 -105.2,-95.32 -31.66,0 -99.81,7.449 -99.81,46.031 0,16.035 10.68,29.145 27.53,29.145 19.34,0 42.21,-16.035 69.03,-16.035 27.06,0 41.8,15.261 41.8,35.324 0,48.562 -137.08,19.336 -137.08,114.699 0,57.426 47.18,93.164 101.76,93.164 23.07,0 80.58,-8.629 80.58,-41.109" />
        <path
           inkscape:connector-curvature="0"
           id="path855"
           style="fill:#aa9f93;fill-opacity:1;fill-rule:nonzero;stroke:none"
           d="M 2171.17,981.398 C 2208.44,970.02 2293,942.922 2293,850.074 c 0,-35.043 -13.95,-74.402 -52.06,-103.332 -49.27,-39.398 -115.23,-41.988 -148.72,-41.988 -50.27,0 -92.01,8.738 -127.3,21.922 -4.64,1.699 -9.35,3.512 -14.04,5.179 l -4.53,7.95 c 3.72,34.129 3.72,38.519 5.59,73.445 l 9.2,2.691 c 16.75,-12.238 57.69,-42.007 129.2,-42.007 73.53,0 100.37,38.562 100.37,65.679 0,40.242 -39.91,53.317 -96.58,70.91 l -29.72,9.594 c -38.13,11.34 -121.75,36.715 -121.75,126.883 0,90.17 83.62,134.83 187.71,134.83 68.79,0 117.02,-18.32 133.83,-24.45 l 4.62,-6.15 c -3.64,-32.43 -4.62,-35.87 -7.55,-69.13 l -8.26,-3.53 c -23.22,14.03 -59.51,34.98 -119.87,34.98 -13,0 -26.09,-0.79 -40.02,-4.31 -27.81,-7.03 -51.17,-25.4 -51.17,-52.63 0,-37.55 38.08,-49 95.87,-65.547 l 33.35,-9.665" />
        <path
           inkscape:connector-curvature="0"
           id="path857"
           style="fill:#aa9f93;fill-opacity:1;fill-rule:nonzero;stroke:none"
           d="m 2831.16,949.883 c -1.89,61.237 -13.91,122.577 -56.7,168.917 -40.95,43.82 -103.19,63.03 -166.42,63.03 -92.92,0 -146.77,-35.84 -172.89,-61.21 -62.22,-58.61 -64.1,-144.413 -64.1,-177.698 0,-28.945 0.9,-118.176 64.1,-178.586 29.74,-29.008 82.78,-58.75 166.38,-58.75 65.08,0 119.94,14.93 160.73,53.449 30.85,28.887 50.28,62.985 60.44,105.945 6.57,26.223 8.46,55.18 8.46,84.903 m -101.3,-3.508 c 0.96,-18.43 0,-77.109 -21.49,-116.469 -26.94,-48.078 -71.51,-58.621 -105.82,-58.621 -18.72,0 -38.26,3.512 -54.84,11.414 -73.53,34.977 -74.45,123.403 -74.45,158.418 0,36.828 2.78,87.563 27.92,123.433 32.46,48.96 84.62,50.77 102.16,50.77 52.12,0 81.87,-22.72 99.57,-49.86 23.16,-38.57 26.95,-97.241 26.95,-119.085" />
        <path
           inkscape:connector-curvature="0"
           id="path859"
           style="fill:#aa9f93;fill-opacity:1;fill-rule:nonzero;stroke:none"
           d="m 1836.57,942.695 c 0,-30.543 -24.74,-55.277 -55.29,-55.277 -30.65,0 -55.29,24.734 -55.29,55.277 0,30.528 24.64,55.321 55.29,55.321 30.55,0 55.29,-24.793 55.29,-55.321" />
        <path
           inkscape:connector-curvature="0"
           id="path861"
           style="fill:#0979b8;fill-opacity:1;fill-rule:nonzero;stroke:none"
           d="m 563.184,1327.38 c -0.86,-67.27 -1.797,-108.45 -1.797,-169.73 0,-147.12 2.722,-293.267 10.136,-440.427 l -4.558,-5.219 c -78.996,0.957 -97.563,0 -167.277,-2.645 L 395,714.668 c 4.688,123.437 4.688,152.277 2.813,270.41 -37.247,0.914 -74.407,1.824 -111.434,1.824 -36.367,0 -70.742,-0.91 -111.613,-2.675 0.957,-126.848 1.836,-158.454 7.414,-267.004 l -4.641,-5.219 c -81.7851,0.957 -98.5351,0 -166.3671,-2.645 l -4.62112,5.309 C 8.33984,788.199 10.3242,831.066 10.3242,909.855 10.3242,1126.97 4.67578,1234.63 0,1324.83 l 5.57422,5.24 c 80.85158,0 94.81678,0 166.35178,2.63 l 4.676,-5.32 -1.836,-231.06 c 32.531,0 65.918,-0.88 98.457,-0.88 41.843,0 82.746,0.88 123.632,1.79 -0.898,103.31 -0.898,128.65 -7.453,227.6 l 4.692,5.24 c 78.035,0 90.125,0 164.492,2.63 l 4.598,-5.32" />
        <path
           inkscape:connector-curvature="0"
           id="path863"
           style="fill:#0979b8;fill-opacity:1;fill-rule:nonzero;stroke:none"
           d="m 1102.14,841.59 c -35.34,-17.555 -77.29,-37.652 -145.077,-37.652 -55.735,0 -93.809,16.66 -116.184,48.242 -13.914,18.273 -16.68,35.718 -20.43,53.246 l 300.251,5.332 5.6,6.023 c -0.92,42.981 -1.86,86.769 -14.94,130.509 -32.45,103.35 -104.03,124.26 -135.715,131.37 -23.118,6.06 -44.532,7.87 -65.918,7.87 -145.887,0 -242.598,-90.21 -242.598,-241.667 0,-41.175 7.488,-84.011 22.266,-114.672 53.964,-118.207 180.3,-128.726 247.343,-128.726 76.982,0 110.572,13.25 159.742,31.519 l 5.66,7.086 6.49,98.864 z M 820.449,998.242 c 2.832,27.148 9.324,63.938 44.688,84.968 11.152,6.98 24.179,9.59 37.168,9.59 30.644,0 49.16,-14.79 59.48,-30.62 13.028,-19.24 13.86,-40.23 13.86,-60.43 l -155.196,-3.508" />
        <path
           inkscape:connector-curvature="0"
           id="path865"
           style="fill:#0979b8;fill-opacity:1;fill-rule:nonzero;stroke:none"
           d="m 1494.34,998.242 c 51.16,-18.375 122.65,-43.801 122.65,-140.027 0,-6.074 0,-12.223 -0.97,-19.281 -16.65,-125.176 -156.05,-137.43 -226.75,-137.43 -67.83,0 -106.86,13.988 -152.42,29.781 l -4.58,7.828 c 3.7,43.793 4.58,53.473 6.4,98.992 l 8.41,3.485 c 13.94,-10.485 21.46,-16.731 37.29,-24.586 34.26,-16.555 72.42,-24.418 98.44,-24.418 51.98,0 73.41,23.582 73.41,45.519 0,31.442 -40.93,44.61 -66.05,52.547 l -35.26,12.239 c -43.67,15.683 -120.82,43.664 -120.82,137.399 0,34.97 12.99,61.28 25.1,77.05 48.31,65.64 139.46,69.23 184.98,69.23 60.38,0 98.46,-10.64 142.13,-21.98 l 4.64,-5.25 -9.26,-95.38 -8.34,-2.74 c -23.24,14.04 -59.48,36.84 -116.18,36.84 -57.78,0 -65.17,-28.88 -65.17,-39.42 0,-24.43 25.2,-34.11 56.8,-44.6 l 45.55,-15.798" />
        <path
           inkscape:connector-curvature="0"
           id="path867"
           style="fill:#e20571;fill-opacity:1;fill-rule:nonzero;stroke:none"
           d="m 2377.08,90.0898 c 0,-18.6992 15.17,-33.871 33.87,-33.871 h 375.51 c 18.7,0 33.85,15.1718 33.85,33.871 V 465.594 c 0,18.711 -15.15,33.871 -33.85,33.871 h -375.51 c -18.7,0 -33.87,-15.16 -33.87,-33.871 V 90.0898" />
        <path
           inkscape:connector-curvature="0"
           id="path869"
           style="fill:#ffffff;fill-opacity:1;fill-rule:nonzero;stroke:none"
           d="m 2623.13,358.488 h -51.19 c -2.55,-29.679 -4.99,-54.91 -7.35,-73.859 -2.38,-18.938 -4.64,-33.359 -6.8,-47.008 -2.29,-13.621 -4.6,-26.062 -6.93,-37.262 -1.95,-8.769 -4.69,-15.55 -8.49,-20.468 -3.71,-4.95 -9.16,-8.379 -16.33,-10.301 -5.97,-1.449 -11.83,-0.27 -17.72,3.551 -5.78,3.828 -9.24,8.41 -10.48,13.73 -0.88,3.949 -1.12,7.301 -0.65,10.051 0.37,2.726 1.18,5.258 2.42,7.629 1.2,2.347 2.51,4.469 4.03,6.437 1.39,1.903 2.95,3.801 4.56,5.731 0.53,0.601 3.07,3.609 7.74,9.051 4.68,5.468 8.11,10.449 10.52,14.968 2.32,4.481 7.45,14.364 10,26.684 2.61,12.308 7.87,54.437 7.76,91.066 -3.93,0 -21.52,0 -21.52,0 -6.1,0 -12.02,-2 -17.59,-4.91 -5.43,-2.859 -10.24,-7.68 -12.4,-10.43 -2.27,-2.839 -8.14,-12.328 -9.56,-14.148 -1.36,-1.852 -4.16,-6.059 -6.28,-5.41 -2.33,0.73 -1.82,3.32 -1.45,5.41 0.4,2.078 4.6,12.68 7.73,20.648 3.22,8.063 7.48,15.832 12.94,23.352 4.21,6.398 10.03,10.91 17.24,15.488 7.29,4.692 15.64,7.012 25.27,7.012 0,0 154.02,0 156.81,0 2.72,0 17.46,-1.172 17.46,-18.359 0,-17.18 -15.65,-18.653 -17.46,-18.653 -1.84,0 -44.53,0 -44.53,0 -3.72,-35.289 -5.56,-71.699 -5.56,-107.398 0,-6.481 1.09,-12.852 3.32,-19.008 2.24,-6.223 4.96,-10.941 8.21,-14.133 4.19,-3.879 9.19,-6.34 15.19,-7.48 6.05,-1.078 12.11,0.781 18.28,5.633 3.4,2.699 5.86,5.707 7.48,9.058 1.54,3.41 2.51,6.711 2.98,9.77 0.4,3.121 1.1,7.5 1.22,8.558 0.12,1.051 -0.09,4.922 4.31,5.262 4.4,0.328 4.84,-3.559 5.25,-7.801 0.37,-4.238 -1.89,-19.988 -5.43,-29.777 -3.54,-9.852 -7.81,-17.723 -12.68,-23.672 -4.91,-6.02 -9.66,-10.32 -14.37,-12.949 -5.35,-3.25 -11.6,-5.199 -18.64,-5.879 -7.16,-0.672 -13.67,0.988 -19.53,4.957 -9.75,7.121 -17.22,18.25 -22.19,33.422 -2.91,8.871 -4.39,20.539 -4.72,35.09 -0.45,14.531 0.04,28.73 1.39,42.597 l 7.74,73.75" />
        <path
           inkscape:connector-curvature="0"
           id="path871"
           style="fill:#656263;fill-opacity:1;fill-rule:nonzero;stroke:none"
           d="m 1290.21,426.23 c 17.27,-7.57 40.23,-17.511 40.23,-47.789 0,-26.5 -19.64,-50.39 -60.81,-50.39 -25.07,0 -41.17,7.57 -46.85,10.41 l -0.93,1.66 c 0.93,8.277 1.18,12.777 1.89,21.77 l 2.35,0.937 c 5.93,-4.019 19.64,-13.957 41.64,-13.957 24.39,0 34.54,12.539 34.54,26.738 0,16.551 -13.72,22.95 -29.08,28.86 l -11.84,5.211 c -16.79,7.8 -39.28,17.968 -39.28,46.836 0,8.75 2.38,17.742 7.34,24.839 10.89,15.618 30.51,20.813 49.68,20.813 18.68,0 30.04,-3.539 42.59,-7.566 l 1.18,-1.895 c -0.96,-8.984 -1.18,-12.301 -1.88,-20.816 l -1.9,-0.95 c -10.17,5.211 -21.31,10.891 -39.03,10.891 -19.64,0 -31.95,-9.227 -31.95,-23.187 0,-10.645 7.1,-15.614 12.07,-18.684 3.07,-1.891 4.03,-2.371 18.21,-8.531 l 11.83,-5.2" />
        <path
           inkscape:connector-curvature="0"
           id="path873"
           style="fill:#656263;fill-opacity:1;fill-rule:nonzero;stroke:none"
           d="m 1454.9,359.762 c -0.95,-10.18 -1.18,-11.364 -1.89,-21.063 l -1.67,-1.648 c -6.86,-3.321 -16.08,-8.051 -32.65,-8.051 -35.71,0 -58.89,25.789 -58.89,62.691 0,37.618 22.71,66.004 59.36,66.004 15.39,0 26.28,-4.965 32.42,-7.57 l 0.94,-1.656 c -0.94,-8.508 -1.18,-11.59 -1.65,-18.68 l -1.9,-0.949 c -7.81,5.68 -16.78,9.23 -26.25,9.23 -19.63,0 -36.91,-15.14 -36.91,-45.429 0,-32.172 18.21,-43.77 36.67,-43.77 16.09,0 26.03,8.277 30.53,11.828 l 1.89,-0.937" />
        <path
           inkscape:connector-curvature="0"
           id="path875"
           style="fill:#656263;fill-opacity:1;fill-rule:nonzero;stroke:none"
           d="m 1588.58,331.84 c -11.35,-0.238 -12.78,-0.238 -23.67,-0.949 l -1.65,1.66 0.23,7.801 c 0.24,12.308 0.24,24.839 0.24,37.16 l -0.24,25.297 c 0,5.441 0,10.89 -1.19,16.089 -2.59,10.891 -9.21,17.981 -21.27,17.981 -13.5,0 -23.9,-7.57 -31.71,-13.25 -0.23,-41.16 0.24,-62.688 1.67,-90.367 l -1.2,-1.422 c -10.87,-0.238 -13.73,-0.238 -25.3,-0.949 l -1.2,1.66 c 0.49,16.801 1.2,38.09 1.2,83.508 0,19.871 -0.24,39.742 -0.49,59.617 -0.46,20.82 -1.18,27.676 -1.89,38.328 l 1.18,1.418 c 11.36,1.891 15.14,2.601 25.8,4.965 l 1.41,-1.653 c -1.41,-25.316 -1.41,-50.863 -1.41,-76.414 7.57,4.965 22.47,14.672 42.34,14.672 5.45,0 10.87,-0.711 15.85,-2.851 10.64,-4.25 17.03,-12.766 19.41,-22.461 1.18,-4.739 1.18,-7.571 1.65,-23.43 v -27.672 l 0.24,-11.129 c 0.47,-19.867 0.47,-23.179 1.41,-36.187 l -1.41,-1.422" />
        <path
           inkscape:connector-curvature="0"
           id="path877"
           style="fill:#656263;fill-opacity:1;fill-rule:nonzero;stroke:none"
           d="m 1709.5,426.23 c -4.49,7.34 -12.06,13.481 -25.31,13.481 -4.5,0 -17.74,-0.461 -26.03,-13.711 -6.39,-9.711 -7.11,-23.43 -7.11,-33.359 0,-9.461 0.25,-33.36 18.93,-42.821 4.28,-2.129 9.24,-3.082 13.97,-3.082 8.75,0 20.1,2.844 26.96,15.864 5.46,10.636 5.67,26.488 5.46,31.457 0,5.91 -0.96,21.761 -6.87,32.171 z m 30.51,-54.171 c -2.61,-11.59 -7.57,-20.821 -15.36,-28.618 C 1714.23,333.02 1700.26,329 1683.7,329 c -21.29,0 -34.75,8.051 -42.33,15.852 -16.1,16.32 -16.32,40.457 -16.32,48.257 0,9 0.47,32.18 16.32,48.032 6.62,6.859 20.33,16.554 44,16.554 16.08,0 31.92,-5.199 42.34,-17.035 10.89,-12.531 13.97,-29.09 14.44,-45.648 0,-8.043 -0.47,-15.864 -2.14,-22.953" />
        <path
           inkscape:connector-curvature="0"
           id="path879"
           style="fill:#656263;fill-opacity:1;fill-rule:nonzero;stroke:none"
           d="m 1856.92,426.23 c -4.5,7.34 -12.07,13.481 -25.31,13.481 -4.5,0 -17.75,-0.461 -26.03,-13.711 -6.39,-9.711 -7.1,-23.43 -7.1,-33.359 0,-9.461 0.24,-33.36 18.92,-42.821 4.28,-2.129 9.24,-3.082 13.97,-3.082 8.75,0 20.09,2.844 26.96,15.864 5.45,10.636 5.67,26.488 5.45,31.457 0,5.91 -0.96,21.761 -6.86,32.171 z m 30.51,-54.171 c -2.61,-11.59 -7.57,-20.821 -15.37,-28.618 C 1861.64,333.02 1847.69,329 1831.12,329 c -21.29,0 -34.76,8.051 -42.33,15.852 -16.09,16.32 -16.32,40.457 -16.32,48.257 0,9 0.47,32.18 16.32,48.032 6.61,6.859 20.33,16.554 43.99,16.554 16.09,0 31.94,-5.199 42.36,-17.035 10.89,-12.531 13.96,-29.09 14.43,-45.648 0,-8.043 -0.47,-15.864 -2.14,-22.953" />
        <path
           inkscape:connector-curvature="0"
           id="path881"
           style="fill:#656263;fill-opacity:1;fill-rule:nonzero;stroke:none"
           d="m 1951.57,331.84 c -11.36,-0.238 -13.71,-0.469 -24.82,-0.949 l -1.2,1.66 c 0.49,16.801 1.2,38.09 1.2,83.508 0,32.652 0,67.664 -2.38,97.945 l 1.18,1.418 c 11.6,1.891 13.95,2.367 25.8,4.965 l 1.4,-1.653 c -1.65,-30.996 -1.65,-62.218 -1.65,-93.214 0,-51.801 0.72,-69.79 1.9,-92.258 l -1.43,-1.422" />
        <path
           inkscape:connector-curvature="0"
           id="path883"
           style="fill:#656263;fill-opacity:1;fill-rule:nonzero;stroke:none"
           d="m 2151.53,426.23 c -4.49,7.34 -12.06,13.481 -25.31,13.481 -4.49,0 -17.74,-0.461 -26.02,-13.711 -6.4,-9.711 -7.1,-23.43 -7.1,-33.359 0,-9.461 0.24,-33.36 18.92,-42.821 4.25,-2.129 9.24,-3.082 13.96,-3.082 8.75,0 20.1,2.844 26.96,15.864 5.46,10.636 5.68,26.488 5.46,31.457 0,5.91 -0.96,21.761 -6.87,32.171 z m 30.51,-54.171 c -2.61,-11.59 -7.57,-20.821 -15.36,-28.618 C 2156.26,333.02 2142.29,329 2125.75,329 c -21.31,0 -34.77,8.051 -42.34,15.852 -16.11,16.32 -16.35,40.457 -16.35,48.257 0,9 0.49,32.18 16.35,48.032 6.61,6.859 20.32,16.554 43.99,16.554 16.08,0 31.94,-5.199 42.36,-17.035 10.86,-12.531 13.95,-29.09 14.42,-45.648 0,-8.043 -0.47,-15.864 -2.14,-22.953" />
        <path
           inkscape:connector-curvature="0"
           id="path885"
           style="fill:#656263;fill-opacity:1;fill-rule:nonzero;stroke:none"
           d="m 2248.79,331.602 c -10.88,0 -13,0 -25.54,-0.711 l -1.2,1.66 c 1.2,24.84 1.2,50.39 1.2,75.469 0,12.531 0,16.8 -0.24,27.199 -5.92,-0.239 -11.83,-0.239 -16.56,-0.239 l -1.41,1.43 c 0.47,6.621 0.69,8.981 0.94,17.031 l 1.42,1.414 c 7.08,-0.234 11.83,-0.468 15.14,-0.468 l -0.25,15.609 c 0,11.836 0,14.672 0.72,18.926 5.44,27.441 34.77,27.441 41.39,27.441 3.56,0 5.92,-0.23 9,-0.465 l 1.18,-1.66 c -0.94,-6.625 -1.18,-9.695 -1.65,-17.035 l -1.67,-1.176 c -2.12,0.469 -3.79,0.946 -6.37,0.946 -4.99,0 -10.42,-0.946 -14.21,-7.106 -3.78,-5.91 -3.78,-12.531 -3.53,-28.387 v -7.093 c 0.47,0 21.03,0.468 23.42,0.468 l 1.18,-1.414 c -0.49,-7.57 -0.71,-9.461 -0.96,-16.8 l -1.41,-1.422 c -10.17,0.242 -12.3,0.242 -21.76,0.242 0,-31.461 0.24,-63.16 1.88,-94.629 0,-2.371 0.25,-4.961 0.47,-7.57 l -1.18,-1.66" />
        <path
           inkscape:connector-curvature="0"
           id="path887"
           style="fill:#656263;fill-opacity:1;fill-rule:nonzero;stroke:none"
           d="m 1051.23,78.5391 c -0.71,-8.0508 -0.71,-9.6993 -1.18,-17.7383 l -1.67,-1.6602 c -46.13,0 -53.47,-0.2304 -98.419,-0.7109 l -1.184,1.6484 c 0.715,18.7032 1.426,31.4727 1.426,74.7619 0,39.75 0,62.461 -1.648,89.672 l 1.406,1.648 c 46.621,0.238 55.839,0.238 99.379,0.711 l 1.42,-1.652 c -0.71,-7.098 -1.18,-9.938 -1.67,-18.457 l -1.42,-1.66 c -30.51,0.949 -40.69,0.949 -70.729,1.199 -0.711,-21.781 -0.711,-28.641 -0.711,-50.41 29.1,-0.219 38.08,0 66.95,0.48 l 1.19,-1.652 c -0.96,-8.289 -0.96,-10.649 -1.19,-18.219 l -1.41,-1.66 c -27.46,0.719 -33.36,0.719 -65.54,0.719 -0.488,-27.45 -0.246,-34.071 0,-56.5473 35.72,0 43.07,0 73.57,1.1797 l 1.43,-1.6523" />
        <path
           inkscape:connector-curvature="0"
           id="path889"
           style="fill:#656263;fill-opacity:1;fill-rule:nonzero;stroke:none"
           d="M 1190.36,59.3789 C 1179,59.1406 1177.58,59.1406 1166.7,58.4297 l -1.65,1.6484 c 0,2.6133 0.22,5.2032 0.22,7.8125 0.25,11.5977 0.25,23.1914 0.25,34.7814 0,36.43 -0.25,38.797 -1.43,43.758 -4.5,17.992 -17.97,17.992 -21.29,17.992 -14.18,0 -25.07,-8.293 -31.46,-13.262 -0.25,-41.148 0.22,-62.6795 1.89,-90.3592 l -1.42,-1.4219 c -11.6,-0.2383 -13.47,-0.2383 -24.83,-0.9492 l -1.2,1.6484 c 0.25,13.2617 0.71,26.0235 0.71,43.5309 0,37.86 -1.65,57.961 -2.83,73.821 l 1.41,1.66 c 11.84,2.121 13.96,2.601 25.1,4.73 l 1.64,-1.66 -0.25,-12.301 c 6.17,4.262 20.84,14.661 41.64,14.661 5.92,0 13.27,-0.93 19.64,-4.489 6.16,-3.551 11.13,-8.992 13.74,-15.371 3.07,-7.109 3.29,-14.199 3.54,-28.871 v -27.68 c 0.71,-27.6793 0.93,-38.3277 1.65,-47.3082 l -1.41,-1.4219" />
        <path
           inkscape:connector-curvature="0"
           id="path891"
           style="fill:#656263;fill-opacity:1;fill-rule:nonzero;stroke:none"
           d="m 1276.5,166.781 c -15.38,0 -25.08,-11.351 -25.08,-26.972 0,-11.59 5.91,-26.25 25.08,-26.25 19.4,0 24.37,15.14 24.13,26.25 -0.23,12.781 -6.38,26.972 -24.13,26.972 z M 1261.59,65.0508 c -8.26,-8.2695 -13.96,-15.1406 -13.96,-25.7813 0,-8.75 7.1,-23.4179 31.24,-23.4179 19.39,0 28.63,10.4101 28.63,21.5195 0,15.6172 -13.96,19.1602 -28.88,23.1875 z M 1260.9,88 c 6.14,-1.6484 36.42,-8.9883 43.04,-11.1094 6.64,-2.1406 28.87,-9 28.87,-34.7812 C 1332.81,21.75 1315.54,0 1277.69,0 c -35.25,0 -53.46,17.0391 -53.46,37.1406 0,17.2696 11.81,26.9688 21.03,34.3008 -4.96,2.1289 -6.61,2.8399 -11.1,4.9688 l -0.47,2.8281 c 7.33,10.6523 10.16,14.9101 16.08,24.1407 -15.85,6.391 -22.72,21.051 -22.72,35.48 0,6.871 1.43,14.2 4.97,21.063 11.36,21.769 35.02,22.949 48.03,22.949 3.78,0 8.52,-0.242 13.24,-0.242 l 5.93,-0.238 c 13.47,-0.231 18.68,-0.231 35.71,0 l 1.18,-1.411 c -0.71,-8.05 -0.71,-8.05 -1.18,-15.621 l -1.42,-1.41 -19.87,1.41 c 8.51,-7.339 11.12,-17.5 11.12,-26.5 0,-21.988 -16.79,-40.9176 -46.36,-40.9176 -4.03,0 -6.86,0.2305 -10.42,0.707 L 1260.9,88" />
        <path
           inkscape:connector-curvature="0"
           id="path893"
           style="fill:#656263;fill-opacity:1;fill-rule:nonzero;stroke:none"
           d="m 1396.94,216.699 c -12.07,-0.469 -14.67,-0.711 -26.26,-1.898 l -1.41,1.429 c 0.24,3.071 0.24,6.391 0.24,9.461 0,4.25 -0.24,8.039 -0.49,12.778 l 1.66,1.41 c 12.3,0.953 14.44,1.191 26.26,2.371 l 1.43,-1.418 c -0.24,-9.703 -0.24,-12.07 0,-22.48 z m -0.22,-157.3201 c -12.32,-0.2383 -14.21,-0.2383 -25.81,-0.9492 l -1.17,1.6484 c 0.71,12.543 1.41,23.4336 1.41,49.6919 0,45.179 -0.7,53.699 -2.35,67.66 l 1.18,1.66 c 10.18,1.64 13.71,2.121 25.54,4.73 l 2.38,-1.429 c -0.71,-12.301 -1.43,-25.071 -1.43,-55.582 0,-44.0082 0.47,-49.9184 1.43,-66.0082 l -1.18,-1.4219" />
        <path
           inkscape:connector-curvature="0"
           id="path895"
           style="fill:#656263;fill-opacity:1;fill-rule:nonzero;stroke:none"
           d="m 1544.11,59.3789 c -11.35,-0.2383 -12.77,-0.2383 -23.66,-0.9492 l -1.65,1.6484 c 0,2.6133 0.22,5.2032 0.22,7.8125 0.25,11.5977 0.25,23.1914 0.25,34.7814 0,36.43 -0.25,38.797 -1.43,43.758 -4.49,17.992 -17.97,17.992 -21.29,17.992 -14.2,0 -25.07,-8.293 -31.45,-13.262 -0.25,-41.148 0.24,-62.6795 1.88,-90.3592 l -1.41,-1.4219 c -11.59,-0.2383 -13.5,-0.2383 -24.86,-0.9492 l -1.18,1.6484 c 0.25,13.2617 0.71,26.0235 0.71,43.5309 0,37.86 -1.65,57.961 -2.82,73.821 l 1.42,1.66 c 11.82,2.121 13.94,2.601 25.08,4.73 l 1.65,-1.66 -0.23,-12.301 c 6.14,4.262 20.79,14.661 41.63,14.661 5.91,0 13.24,-0.93 19.62,-4.489 6.17,-3.551 11.13,-8.992 13.74,-15.371 3.08,-7.109 3.29,-14.199 3.54,-28.871 v -27.68 c 0.71,-27.6793 0.95,-38.3277 1.65,-47.3082 l -1.41,-1.4219" />
        <path
           inkscape:connector-curvature="0"
           id="path897"
           style="fill:#656263;fill-opacity:1;fill-rule:nonzero;stroke:none"
           d="m 1662.9,149.75 c -4.72,13.012 -15.14,18.449 -25.78,18.449 -13.25,0 -28.86,-8.988 -31.24,-32.64 28.63,-0.25 37.63,0 59.38,0.23 -0.22,3.313 -0.47,8.52 -2.36,13.961 z m 22,-61.75 c -1.18,-9.4609 -1.42,-11.8281 -1.89,-21.0586 l -1.43,-1.6601 c -4,-2.1211 -16.79,-8.9805 -37.85,-8.9805 -38.79,0 -63.16,22.2383 -63.16,63.3982 0,44 26.49,65.531 57.49,65.531 18.7,0 31.7,-7.8 38.81,-16.32 13.46,-16.09 12.99,-39.512 12.77,-49.922 l -1.67,-1.418 c -36.9,0.239 -43.28,0.239 -82.09,0 0.24,-8.281 0.96,-19.8591 8.99,-29.57 9.71,-11.5898 23.19,-12.7695 30.53,-12.7695 6.86,0 13.97,1.1797 20.58,3.5508 8.75,3.539 13.95,7.8007 17.03,10.4101 L 1684.9,88" />
        <path
           inkscape:connector-curvature="0"
           id="path899"
           style="fill:#656263;fill-opacity:1;fill-rule:nonzero;stroke:none"
           d="m 1800.63,149.75 c -4.72,13.012 -15.14,18.449 -25.78,18.449 -13.25,0 -28.85,-8.988 -31.24,-32.64 28.64,-0.25 37.63,0 59.39,0.23 -0.23,3.313 -0.47,8.52 -2.37,13.961 z M 1822.64,88 c -1.18,-9.4609 -1.43,-11.8281 -1.9,-21.0586 l -1.42,-1.6601 c -4.02,-2.1211 -16.79,-8.9805 -37.86,-8.9805 -38.78,0 -63.17,22.2383 -63.17,63.3982 0,44 26.5,65.531 57.49,65.531 18.71,0 31.71,-7.8 38.81,-16.32 13.48,-16.09 13.01,-39.512 12.78,-49.922 l -1.67,-1.418 c -36.89,0.239 -43.28,0.239 -82.09,0 0.25,-8.281 0.96,-19.8591 9,-29.57 9.7,-11.5898 23.17,-12.7695 30.52,-12.7695 6.86,0 13.96,1.1797 20.58,3.5508 8.75,3.539 13.96,7.8007 17.03,10.4101 L 1822.64,88" />
        <path
           inkscape:connector-curvature="0"
           id="path901"
           style="fill:#656263;fill-opacity:1;fill-rule:nonzero;stroke:none"
           d="m 1917.29,157.551 c -2.37,0.949 -5.44,2.129 -9.47,2.129 -4.5,0 -7.79,-1.66 -9.93,-3.071 -9.71,-6.859 -9.71,-17.269 -9.71,-41.871 0,-26.738 0.72,-40.6872 1.67,-53.9372 l -1.18,-1.6602 c -11.13,0 -13.72,-0.2304 -25.08,-0.7109 l -1.19,1.4219 c 0.25,17.9804 0.49,34.2968 0.49,56.2964 0,37.852 -0.71,47.551 -2.14,61.282 l 1.43,1.66 c 8.99,1.64 14.65,2.832 24.6,4.73 l 1.4,-1.429 -1.18,-20.102 c 2.85,7.57 8.75,22.711 28.88,22.711 3.08,0 4.72,-0.238 6.61,-0.719 l 0.96,-1.41 c -2.39,-11.359 -2.85,-13.723 -4.49,-24.133 l -1.67,-1.187" />
        <path
           inkscape:connector-curvature="0"
           id="path903"
           style="fill:#656263;fill-opacity:1;fill-rule:nonzero;stroke:none"
           d="m 1976.69,216.699 c -12.07,-0.469 -14.68,-0.711 -26.26,-1.898 l -1.42,1.429 c 0.25,3.071 0.25,6.391 0.25,9.461 0,4.25 -0.25,8.039 -0.49,12.778 l 1.66,1.41 c 12.29,0.953 14.43,1.191 26.26,2.371 l 1.43,-1.418 c -0.25,-9.703 -0.25,-12.07 0,-22.48 z m -0.23,-157.3201 c -12.31,-0.2383 -14.2,-0.2383 -25.81,-0.9492 l -1.17,1.6484 c 0.71,12.543 1.42,23.4336 1.42,49.6919 0,45.179 -0.71,53.699 -2.36,67.66 l 1.19,1.66 c 10.16,1.64 13.71,2.121 25.53,4.73 l 2.39,-1.429 c -0.72,-12.301 -1.43,-25.071 -1.43,-55.582 0,-44.0082 0.47,-49.9184 1.43,-66.0082 l -1.19,-1.4219" />
        <path
           inkscape:connector-curvature="0"
           id="path905"
           style="fill:#656263;fill-opacity:1;fill-rule:nonzero;stroke:none"
           d="m 2123.86,59.3789 c -11.35,-0.2383 -12.78,-0.2383 -23.66,-0.9492 l -1.66,1.6484 c 0,2.6133 0.23,5.2032 0.23,7.8125 0.24,11.5977 0.24,23.1914 0.24,34.7814 0,36.43 -0.24,38.797 -1.42,43.758 -4.49,17.992 -17.97,17.992 -21.29,17.992 -14.2,0 -25.07,-8.293 -31.46,-13.262 -0.24,-41.148 0.25,-62.6795 1.89,-90.3592 l -1.42,-1.4219 c -11.58,-0.2383 -13.49,-0.2383 -24.85,-0.9492 l -1.18,1.6484 c 0.24,13.2617 0.71,26.0235 0.71,43.5309 0,37.86 -1.65,57.961 -2.82,73.821 l 1.41,1.66 c 11.83,2.121 13.95,2.601 25.08,4.73 l 1.65,-1.66 -0.22,-12.301 c 6.14,4.262 20.79,14.661 41.63,14.661 5.91,0 13.23,-0.93 19.62,-4.489 6.17,-3.551 11.13,-8.992 13.74,-15.371 3.06,-7.109 3.29,-14.199 3.53,-28.871 v -27.68 c 0.72,-27.6793 0.96,-38.3277 1.65,-47.3082 l -1.4,-1.4219" />
        <path
           inkscape:connector-curvature="0"
           id="path907"
           style="fill:#656263;fill-opacity:1;fill-rule:nonzero;stroke:none"
           d="m 2210.01,166.781 c -15.39,0 -25.08,-11.351 -25.08,-26.972 0,-11.59 5.9,-26.25 25.08,-26.25 19.38,0 24.36,15.14 24.13,26.25 -0.24,12.781 -6.39,26.972 -24.13,26.972 z M 2195.09,65.0508 c -8.28,-8.2695 -13.94,-15.1406 -13.94,-25.7813 0,-8.75 7.08,-23.4179 31.21,-23.4179 19.4,0 28.64,10.4101 28.64,21.5195 0,15.6172 -13.96,19.1602 -28.88,23.1875 z M 2194.38,88 c 6.17,-1.6484 36.44,-8.9883 43.06,-11.1094 6.63,-2.1406 28.86,-9 28.86,-34.7812 C 2266.3,21.75 2249.03,0 2211.18,0 c -35.24,0 -53.46,17.0391 -53.46,37.1406 0,17.2696 11.83,26.9688 21.05,34.3008 -4.97,2.1289 -6.62,2.8399 -11.11,4.9688 l -0.47,2.8281 c 7.32,10.6523 10.17,14.9101 16.07,24.1407 -15.85,6.391 -22.7,21.051 -22.7,35.48 0,6.871 1.42,14.2 4.96,21.063 11.36,21.769 35.03,22.949 48.02,22.949 3.79,0 8.53,-0.242 13.26,-0.242 l 5.91,-0.238 c 13.48,-0.231 18.69,-0.231 35.72,0 l 1.18,-1.411 c -0.71,-8.05 -0.71,-8.05 -1.18,-15.621 l -1.42,-1.41 -19.86,1.41 c 8.5,-7.339 11.1,-17.5 11.1,-26.5 0,-21.988 -16.79,-40.9176 -46.36,-40.9176 -4.02,0 -6.85,0.2305 -10.42,0.707 L 2194.38,88" />
      </g>
    </g>
  </g>
</svg>
