<?xml version="1.0" encoding="UTF-8" standalone="no"?>
<!-- Created with Inkscape (http://www.inkscape.org/) -->

<svg
   xmlns:dc="http://purl.org/dc/elements/1.1/"
   xmlns:cc="http://creativecommons.org/ns#"
   xmlns:rdf="http://www.w3.org/1999/02/22-rdf-syntax-ns#"
   xmlns:svg="http://www.w3.org/2000/svg"
   xmlns="http://www.w3.org/2000/svg"
   xmlns:sodipodi="http://sodipodi.sourceforge.net/DTD/sodipodi-0.dtd"
   xmlns:inkscape="http://www.inkscape.org/namespaces/inkscape"
   width="240.37007mm"
   height="65.788177mm"
   viewBox="0 0 240.37007 65.788177"
   version="1.1"
   id="svg8"
   inkscape:version="0.92.4 (5da689c313, 2019-01-14)"
   sodipodi:docname="HESSO_Pictogram.svg">
  <defs
     id="defs2" />
  <sodipodi:namedview
     id="base"
     pagecolor="#ffffff"
     bordercolor="#666666"
     borderopacity="1.0"
     inkscape:pageopacity="0.0"
     inkscape:pageshadow="2"
     inkscape:zoom="0.35"
     inkscape:cx="317.09981"
     inkscape:cy="152.89553"
     inkscape:document-units="mm"
     inkscape:current-layer="layer1"
     showgrid="false"
     fit-margin-top="0"
     fit-margin-left="0"
     fit-margin-right="0"
     fit-margin-bottom="0"
     inkscape:window-width="1920"
     inkscape:window-height="1017"
     inkscape:window-x="-8"
     inkscape:window-y="32"
     inkscape:window-maximized="1" />
  <metadata
     id="metadata5">
    <rdf:RDF>
      <cc:Work
         rdf:about="">
        <dc:format>image/svg+xml</dc:format>
        <dc:type
           rdf:resource="http://purl.org/dc/dcmitype/StillImage" />
        <dc:title></dc:title>
      </cc:Work>
    </rdf:RDF>
  </metadata>
  <g
     inkscape:label="Layer 1"
     inkscape:groupmode="layer"
     id="layer1"
     transform="translate(-21.934008,-123.49877)">
    <g
       transform="matrix(0.35277777,0,0,-0.35277777,21.934008,189.28653)"
       inkscape:label="ink_ext_XXXXXX"
       id="g18">
      <g
         transform="scale(0.1)"
         id="g20">
        <path
           inkscape:connector-curvature="0"
           id="path22"
           style="fill:#aa9f93;fill-opacity:1;fill-rule:nonzero;stroke:none"
           d="m 3937.23,860.5 c 0,25.852 5.5,37.16 23.63,74.66 1.07,2.324 368.67,785.1 368.67,785.1 25.18,52.13 49.42,101.99 105.32,101.99 46.99,0 82.37,-35.55 82.37,-82.53 0,-26.01 -8.21,-45.75 -17.14,-65.17 0,0 -383.59,-812.941 -383.81,-813.491 -21.13,-42.207 -42.93,-85.918 -97.95,-85.918 -45.37,0 -81.09,37.55 -81.09,85.359 m 355.92,882.34 c -2.11,-4.5 -369.84,-787.27 -369.84,-787.27 -19.97,-41.484 -28.62,-59.574 -28.62,-95.07 0,-71.719 54.27,-127.898 123.63,-127.898 81.14,0 112.98,63.226 136.16,109.476 l 384.04,814.402 c 10.82,23.18 21.3,48.52 21.3,83.24 0,70 -55.02,125.13 -124.97,125.13 -82.69,0 -116.8,-70.55 -141.7,-122.01" />
        <path
           inkscape:connector-curvature="0"
           id="path24"
           style="fill:#aa9f93;fill-opacity:1;fill-rule:nonzero;stroke:none"
           d="m 4289.26,860.5 c 0,25.852 5.44,37.16 23.63,74.66 1.06,2.324 368.73,785.1 368.73,785.1 25.24,52.08 49.39,101.99 105.27,101.99 46.92,0 82.61,-35.55 82.61,-82.53 0,-26.01 -8.18,-45.75 -17.47,-65.11 0,0 -383.4,-812.829 -383.84,-813.45 -20.96,-42.308 -42.76,-86.019 -97.9,-86.019 -45.53,0 -81.03,37.609 -81.03,85.359 m 355.92,882.28 c -2.16,-4.44 -369.87,-787.21 -369.87,-787.21 -19.88,-41.543 -28.65,-59.574 -28.65,-95.07 0,-71.719 54.39,-127.898 123.63,-127.898 81.54,0 113.16,63.226 136.22,109.707 l 384.13,814.171 c 10.4,22.07 21.27,48.52 21.27,83.24 0,70 -54.92,125.13 -125.02,125.13 -82.75,0 -116.81,-70.61 -141.71,-122.07" />
        <path
           inkscape:connector-curvature="0"
           id="path26"
           style="fill:#aa9f93;fill-opacity:1;fill-rule:nonzero;stroke:none"
           d="m 5086.73,1689.37 c -2.77,7.31 -3.94,12.86 -3.94,20.68 0,23.52 20.69,40.37 42.98,40.37 19.06,0 30.84,-12.3 38.27,-27.45 l 86.64,-232.78 86.86,232.78 c 7.22,15.15 19.02,27.45 38.05,27.45 22.46,0 43.01,-16.85 43.01,-40.37 0,-7.82 -1.14,-13.37 -3.85,-20.68 l -122.58,-311.78 c -7.37,-17.85 -16.91,-32.5 -41.49,-32.5 -24.62,0 -34.17,14.65 -41.49,32.5 l -122.46,311.78" />
        <path
           inkscape:connector-curvature="0"
           id="path28"
           style="fill:#aa9f93;fill-opacity:1;fill-rule:nonzero;stroke:none"
           d="m 5495.33,1486.64 h 106.39 l -52.14,162.23 h -0.99 z m -6.15,203.17 c 9.48,25.62 31.34,46.37 59.77,46.37 29.8,0 50.49,-19.59 59.98,-46.37 l 109.73,-304.56 c 3.42,-9.04 4.47,-16.8 4.47,-20.8 0,-21.74 -17.75,-36.88 -38.61,-36.88 -23.45,0 -35.21,12.36 -40.87,29.11 l -16.86,52.64 h -155.53 l -16.91,-52.08 c -5.6,-17.31 -17.25,-29.67 -40.1,-29.67 -22.41,0 -41.38,16.75 -41.38,39.1 0,9.15 2.72,15.8 3.72,18.58 l 112.59,304.56" />
        <path
           inkscape:connector-curvature="0"
           id="path30"
           style="fill:#aa9f93;fill-opacity:1;fill-rule:nonzero;stroke:none"
           d="m 5760.57,1689.19 c 0,28.01 18.08,43.71 41.99,43.71 24.12,0 42.04,-15.7 42.04,-43.71 v -280.92 h 99.67 c 28.5,0 40.88,-21.35 40.38,-40.27 -1.17,-18.58 -15.87,-37.05 -40.38,-37.05 h -140.05 c -27.34,0 -43.65,17.91 -43.65,45.93 v 312.31" />
        <path
           inkscape:connector-curvature="0"
           id="path32"
           style="fill:#aa9f93;fill-opacity:1;fill-rule:nonzero;stroke:none"
           d="m 6125.58,1486.64 h 106.49 l -52.08,162.23 h -1.22 z m -6.1,203.17 c 9.56,25.62 31.28,46.37 59.85,46.37 29.78,0 50.36,-19.59 59.96,-46.37 l 109.68,-304.56 c 3.35,-9.04 4.52,-16.8 4.52,-20.8 0,-21.74 -18,-36.88 -38.72,-36.88 -23.4,0 -35.17,12.36 -40.76,29.11 l -17.04,52.64 h -155.41 l -16.83,-52.08 c -5.57,-17.31 -17.44,-29.67 -40.4,-29.67 -22.3,0 -41.27,16.75 -41.27,39.1 0,9.15 2.83,15.8 3.99,18.58 l 112.43,304.56" />
        <path
           inkscape:connector-curvature="0"
           id="path34"
           style="fill:#aa9f93;fill-opacity:1;fill-rule:nonzero;stroke:none"
           d="m 6390.92,1689.19 c 0,28.01 18.03,43.71 41.96,43.71 24.15,0 42.07,-15.7 42.07,-43.71 v -317.86 c 0,-28.13 -17.92,-43.71 -42.07,-43.71 -23.93,0 -41.96,15.58 -41.96,43.71 v 317.86" />
        <path
           inkscape:connector-curvature="0"
           id="path36"
           style="fill:#aa9f93;fill-opacity:1;fill-rule:nonzero;stroke:none"
           d="m 6778.4,1679.27 c 0,-21.69 -14.59,-41.33 -37.67,-41.33 -22.96,0 -40.76,16.81 -74.31,16.81 -24.13,0 -45.96,-12.86 -45.96,-36.38 0,-57.63 187.05,-20.75 187.05,-165.12 0,-80.04 -66.13,-129.9 -143.37,-129.9 -43.15,0 -135.89,10.15 -135.89,62.74 0,21.73 14.45,39.7 37.44,39.7 26.18,0 57.57,-21.79 93.9,-21.79 37.02,0 57.07,20.63 57.07,48.14 0,66.01 -186.8,26.29 -186.8,156.13 0,78.32 64.28,126.96 138.94,126.96 31.17,0 109.6,-11.7 109.6,-55.96" />
        <path
           inkscape:connector-curvature="0"
           id="path38"
           style="fill:#aa9f93;fill-opacity:1;fill-rule:nonzero;stroke:none"
           d="m 5045.32,1191.01 c -1.74,7.32 -2.24,11.15 -2.24,19.08 0,17.92 14.98,36.95 39.79,36.95 26.94,0 39.81,-15.59 44.68,-40.39 l 47.65,-237.771 h 1.11 l 72.76,245.161 c 6.05,20.18 23.02,33 43.76,33 20.47,0 37.39,-12.82 43.55,-33 l 72.76,-245.161 h 1.22 l 47.54,237.771 c 5.1,24.8 17.91,40.39 44.65,40.39 24.79,0 39.71,-19.03 39.71,-36.95 0,-7.93 -0.44,-11.76 -2.16,-19.08 l -70.89,-305.498 c -5.65,-23.621 -24.18,-43.641 -55.62,-43.641 -27.29,0 -48.54,17.848 -55.36,40.875 l -64.9,215.864 h -1.21 l -64.84,-215.864 c -6.8,-23.027 -28.07,-40.875 -55.41,-40.875 -31.28,0 -49.87,20.02 -55.46,43.641 l -71.09,305.498" />
        <path
           inkscape:connector-curvature="0"
           id="path40"
           style="fill:#aa9f93;fill-opacity:1;fill-rule:nonzero;stroke:none"
           d="m 5649.7,1000.77 h 106.48 l -52.13,162.35 h -0.87 z m -6,203.06 c 9.48,25.9 31.23,46.58 60.04,46.58 29.43,0 50.18,-19.52 59.8,-46.58 l 109.73,-304.392 c 3.27,-9.043 4.44,-16.75 4.44,-20.637 0,-21.84 -17.91,-36.93 -38.69,-36.93 -23.43,0 -35.19,12.188 -40.8,29.059 l -16.91,52.472 h -155.47 l -16.91,-52.035 c -5.63,-17.308 -17.53,-29.496 -40.38,-29.496 -22.3,0 -41.21,16.688 -41.21,39.098 0,8.879 2.89,15.636 3.88,18.469 l 112.48,304.392" />
        <path
           inkscape:connector-curvature="0"
           id="path42"
           style="fill:#aa9f93;fill-opacity:1;fill-rule:nonzero;stroke:none"
           d="m 5915.15,1203.38 c 0,28.07 17.97,43.66 41.9,43.66 24.1,0 42.13,-15.59 42.13,-43.66 V 922.453 h 99.67 c 28.5,0 40.88,-21.355 40.13,-40.488 -0.97,-18.356 -15.68,-36.887 -40.13,-36.887 h -139.94 c -27.4,0 -43.76,18.031 -43.76,45.981 v 312.321" />
        <path
           inkscape:connector-curvature="0"
           id="path44"
           style="fill:#aa9f93;fill-opacity:1;fill-rule:nonzero;stroke:none"
           d="m 6164.87,1203.38 c 0,28.07 17.89,43.66 41.86,43.66 24.12,0 42.06,-15.59 42.06,-43.66 V 922.453 h 99.65 c 28.34,0 40.88,-21.355 40.2,-40.488 -1.1,-18.356 -15.63,-36.887 -40.2,-36.887 h -139.88 c -27.41,0 -43.69,18.031 -43.69,45.981 v 312.321" />
        <path
           inkscape:connector-curvature="0"
           id="path46"
           style="fill:#aa9f93;fill-opacity:1;fill-rule:nonzero;stroke:none"
           d="m 6414.43,1203.38 c 0,28.07 17.98,43.66 42.06,43.66 24.07,0 41.98,-15.59 41.98,-43.66 V 885.461 c 0,-27.961 -17.91,-43.652 -41.98,-43.652 -24.08,0 -42.06,15.691 -42.06,43.652 v 317.919" />
        <path
           inkscape:connector-curvature="0"
           id="path48"
           style="fill:#aa9f93;fill-opacity:1;fill-rule:nonzero;stroke:none"
           d="m 6784.5,1194.34 c 0,-21.8 -14.53,-41.32 -37.6,-41.32 -22.86,0 -40.78,16.75 -74.44,16.75 -24.07,0 -45.87,-12.81 -45.87,-36.39 0,-57.63 187.05,-20.68 187.05,-165.114 0,-80.032 -66.02,-129.895 -143.35,-129.895 -43.14,0 -136.02,10.149 -136.02,62.727 0,21.855 14.56,39.715 37.53,39.715 26.34,0 57.51,-21.856 94.06,-21.856 36.89,0 56.96,20.801 56.96,48.145 0,66.168 -186.8,26.347 -186.8,156.298 0,78.26 64.28,126.96 138.66,126.96 31.44,0 109.82,-11.75 109.82,-56.02" />
        <path
           inkscape:connector-curvature="0"
           id="path50"
           style="fill:#aa9f93;fill-opacity:1;fill-rule:nonzero;stroke:none"
           d="m 2958.73,1238.7 c 50.77,-15.5 166,-52.43 166,-178.95 0,-47.77 -19,-101.398 -70.94,-140.812 -67.14,-53.7 -157.02,-57.239 -202.67,-57.239 -68.5,0 -125.37,11.918 -173.46,29.887 -6.32,2.312 -12.76,4.781 -19.14,7.059 l -6.18,10.832 c 5.07,46.503 5.07,52.5 7.63,100.083 l 12.53,3.67 c 22.82,-16.675 78.62,-57.25 176.08,-57.25 100.19,0 136.77,52.56 136.77,89.51 0,54.85 -54.39,72.66 -131.62,96.63 l -40.49,13.08 c -51.97,15.45 -165.92,50.03 -165.92,172.91 0,122.87 113.95,183.73 255.8,183.73 93.74,0 159.46,-24.96 182.37,-33.32 l 6.29,-8.38 c -4.96,-44.19 -6.29,-48.88 -10.28,-94.21 l -11.26,-4.81 c -31.65,19.13 -81.09,47.67 -163.34,47.67 -17.73,0 -35.56,-1.08 -54.56,-5.88 -37.88,-9.58 -69.72,-34.61 -69.72,-71.71 0,-51.17 51.89,-66.78 130.65,-89.33 l 45.46,-13.17" />
        <path
           inkscape:connector-curvature="0"
           id="path52"
           style="fill:#aa9f93;fill-opacity:1;fill-rule:nonzero;stroke:none"
           d="m 3858.11,1195.75 c -2.58,83.45 -18.97,167.05 -77.26,230.2 -55.83,59.71 -140.63,85.89 -226.8,85.89 -126.62,0 -200,-48.84 -235.61,-83.41 -84.78,-79.87 -87.33,-196.8 -87.33,-242.16 0,-39.45 1.22,-161.04 87.33,-243.368 40.55,-39.531 112.82,-80.062 226.74,-80.062 88.69,0 163.45,20.348 219.03,72.848 42.04,39.363 68.53,85.832 82.36,144.372 8.96,35.73 11.54,75.2 11.54,115.69 m -138.05,-4.78 c 1.3,-25.11 0,-105.08 -29.29,-158.71 -36.72,-65.518 -97.45,-79.885 -144.21,-79.885 -25.51,0 -52.13,4.785 -74.73,15.559 -100.2,47.666 -101.45,168.156 -101.45,215.886 0,50.18 3.8,119.32 38.05,168.2 44.24,66.71 115.31,69.18 139.22,69.18 71.01,0 111.56,-30.95 135.69,-67.93 31.56,-52.57 36.72,-132.53 36.72,-162.3" />
        <path
           inkscape:connector-curvature="0"
           id="path54"
           style="fill:#aa9f93;fill-opacity:1;fill-rule:nonzero;stroke:none"
           d="m 2502.75,1185.97 c 0,-41.63 -33.72,-75.33 -75.35,-75.33 -41.76,0 -75.34,33.7 -75.34,75.33 0,41.59 33.58,75.37 75.34,75.37 41.63,0 75.35,-33.78 75.35,-75.37" />
        <path
           inkscape:connector-curvature="0"
           id="path56"
           style="fill:#0979b8;fill-opacity:1;fill-rule:nonzero;stroke:none"
           d="m 767.461,1710.19 c -1.16,-91.68 -2.441,-147.8 -2.441,-231.3 0,-200.49 3.718,-399.65 13.816,-600.187 l -6.219,-7.109 c -107.656,1.301 -132.941,0 -227.957,-3.602 l -6.379,7.235 c 6.379,168.213 6.379,207.503 3.828,368.493 -50.75,1.24 -101.39,2.48 -151.859,2.48 -49.559,0 -96.395,-1.24 -152.086,-3.65 1.305,-172.85 2.496,-215.92 10.094,-363.847 l -6.324,-7.109 c -111.454,1.301 -134.278,0 -226.7074,-3.602 l -6.29301,7.235 c 2.43361,100.195 5.12501,158.613 5.12501,265.973 0,295.88 -7.67969,442.58 -14.0586,565.51 l 7.59766,7.14 c 110.18334,0 129.20734,0 226.68734,3.58 l 6.375,-7.24 -2.496,-314.89 c 44.316,0 89.824,-1.19 134.164,-1.19 57.02,0 112.762,1.19 168.481,2.44 -1.223,140.79 -1.223,175.31 -10.153,310.16 l 6.375,7.14 c 106.36,0 122.828,0 224.16,3.58 l 6.27,-7.24" />
        <path
           inkscape:connector-curvature="0"
           id="path58"
           style="fill:#0979b8;fill-opacity:1;fill-rule:nonzero;stroke:none"
           d="m 1501.93,1048.18 c -48.18,-23.92 -105.33,-51.301 -197.71,-51.301 -75.96,0 -127.85,22.691 -158.33,65.731 -18.96,24.9 -22.73,48.67 -27.84,72.57 l 409.16,7.27 7.63,8.2 c -1.24,58.57 -2.52,118.24 -20.35,177.85 -44.24,140.84 -141.77,169.32 -184.95,179.02 -31.51,8.25 -60.68,10.73 -89.83,10.73 -198.81,0 -330.593,-122.95 -330.593,-329.33 0,-56.12 10.211,-114.49 30.336,-156.27 C 1013,871.566 1185.17,857.23 1276.51,857.23 c 104.92,0 150.7,18.055 217.71,42.958 l 7.71,9.648 8.84,134.724 z m -383.88,213.48 c 3.86,37 12.7,87.12 60.9,115.79 15.2,9.5 32.95,13.07 50.64,13.07 41.76,0 67,-20.16 81.06,-41.74 17.75,-26.22 18.89,-54.81 18.89,-82.33 l -211.49,-4.79" />
        <path
           inkscape:connector-curvature="0"
           id="path60"
           style="fill:#0979b8;fill-opacity:1;fill-rule:nonzero;stroke:none"
           d="m 2036.38,1261.66 c 69.72,-25.03 167.14,-59.7 167.14,-190.83 0,-8.27 0,-16.65 -1.33,-26.27 -22.69,-170.583 -212.65,-187.271 -309,-187.271 -92.43,0 -145.62,19.063 -207.71,40.582 l -6.24,10.664 c 5.05,59.68 6.24,72.863 8.74,134.905 l 11.45,4.74 c 19,-14.28 29.26,-22.8 50.81,-33.5 46.69,-22.559 98.7,-33.282 134.17,-33.282 70.83,0 100.02,32.142 100.02,62.042 0,42.84 -55.76,60.78 -90.01,71.6 l -48.03,16.68 c -59.52,21.37 -164.65,59.5 -164.65,187.24 0,47.65 17.69,83.51 34.19,104.99 65.84,89.45 190.05,94.34 252.09,94.34 82.28,0 134.17,-14.49 193.68,-29.95 l 6.32,-7.14 -12.61,-130 -11.38,-3.72 c -31.67,19.13 -81.05,50.21 -158.32,50.21 -78.73,0 -88.79,-39.37 -88.79,-53.72 0,-33.3 34.33,-46.49 77.39,-60.79 l 62.07,-21.52" />
        <path
           inkscape:connector-curvature="0"
           id="path62"
           style="fill:#00a5e5;fill-opacity:1;fill-rule:nonzero;stroke:none"
           d="m 4283.21,43.9414 c 0,-24.25 19.67,-43.9531188 43.91,-43.9531188 h 487.08 c 24.27,0 43.94,19.7031188 43.94,43.9531188 V 531 c 0,24.281 -19.67,43.941 -43.94,43.941 h -487.08 c -24.24,0 -43.91,-19.66 -43.91,-43.941 V 43.9414" />
        <path
           inkscape:connector-curvature="0"
           id="path64"
           style="fill:#ffffff;fill-opacity:1;fill-rule:nonzero;stroke:none"
           d="m 4441.68,436.809 h 247.21 c 0,0 0.57,-15.618 1.57,-31.868 1.04,-17.16 2.42,-35.089 2.33,-36.492 -0.22,-2.699 -0.8,-5.32 -4.19,-6.519 -2.68,-0.93 -5.62,0.98 -6.34,6.32 -0.7,5.23 -1.89,10.539 -5.8,20.039 -1.77,4.211 -9.62,13.602 -20.41,18.473 -12.35,5.59 -27.29,5.547 -33.23,5.547 H 4520.5 c 24.62,-35.77 59.51,-85.188 67.52,-99.137 3.39,-5.832 3.3,-13.332 -7.51,-28.863 -10.88,-15.539 -70.47,-93.489 -70.47,-93.489 h 116.53 c 17.39,0 30.06,1.961 38.07,5.789 8.02,3.832 13.98,17.95 15.45,23.121 1.34,5.161 1.97,10.231 8.05,9.918 3.9,-0.218 4.74,-4.757 4.79,-8.089 0,-1.508 -2.14,-20.09 -4.1,-37.239 -2.44,-21.199 -4.8,-41.64 -4.8,-41.64 h -240.8 c -3.36,0 -5.96,0 -6.87,2.211 -1.31,3.308 0.21,6 2.68,8.988 4.11,4.871 62.43,79.293 86.98,116.07 6.09,9.231 10.14,16.051 8.95,20.672 -1.5,5.309 -8.06,15.149 -17.11,28.848 -26.43,40.101 -76.01,102.722 -78.29,105.98 -3.16,4.371 -4.1,6.52 -2.74,9.473 0.83,1.887 2.74,1.887 4.85,1.887" />
        <path
           inkscape:connector-curvature="0"
           id="path66"
           style="fill:#e20571;fill-opacity:1;fill-rule:nonzero;stroke:none"
           d="m 4935.06,43.9414 c 0,-24.25 19.64,-43.9531188 43.91,-43.9531188 h 487.09 c 24.25,0 43.92,19.7031188 43.92,43.9531188 V 531 c 0,24.281 -19.67,43.941 -43.92,43.941 h -487.09 c -24.27,0 -43.91,-19.66 -43.91,-43.941 V 43.9414" />
        <path
           inkscape:connector-curvature="0"
           id="path68"
           style="fill:#ffffff;fill-opacity:1;fill-rule:nonzero;stroke:none"
           d="m 5256.51,392.07 h -66.42 c -3.3,-38.48 -6.47,-71.211 -9.54,-95.8 -3.08,-24.571 -5.99,-43.258 -8.79,-60.961 -3,-17.668 -5.97,-33.809 -8.99,-48.34 -2.55,-11.367 -6.13,-20.18 -11.03,-26.559 -4.81,-6.41 -11.88,-10.859 -21.16,-13.351 -7.8,-1.879 -15.36,-0.36 -23.02,4.57 -7.46,4.992 -11.95,10.93 -13.56,17.84 -1.17,5.113 -1.47,9.472 -0.86,13.031 0.46,3.559 1.52,6.84 3.13,9.898 1.55,3.043 3.27,5.801 5.24,8.352 1.77,2.469 3.83,4.941 5.9,7.449 0.68,0.762 4.01,4.653 10.05,11.723 6.07,7.09 10.54,13.566 13.64,19.437 2.99,5.789 9.65,18.602 12.98,34.582 3.38,15.981 10.18,70.629 10.07,118.129 h -27.93 c -7.9,0 -15.58,-2.59 -22.82,-6.359 -7.04,-3.711 -13.28,-9.949 -16.08,-13.52 -2.94,-3.679 -10.57,-16 -12.41,-18.363 -1.74,-2.387 -5.37,-7.859 -8.15,-7.027 -2.99,0.961 -2.35,4.32 -1.89,7.027 0.56,2.684 5.97,16.453 10.04,26.781 4.19,10.469 9.71,20.539 16.81,30.289 5.44,8.301 12.98,14.153 22.35,20.102 9.46,6.082 20.31,9.09 32.79,9.09 h 203.41 c 3.52,0 22.6,-1.512 22.6,-23.828 0,-22.274 -20.27,-24.192 -22.6,-24.192 h -57.77 c -4.82,-45.769 -7.24,-93 -7.24,-139.3 0,-8.411 1.42,-16.661 4.3,-24.661 2.94,-8.058 6.47,-14.168 10.66,-18.32 5.43,-5.027 11.92,-8.23 19.74,-9.687 7.81,-1.43 15.7,0.988 23.68,7.289 4.44,3.48 7.6,7.398 9.71,11.738 1.99,4.43 3.27,8.699 3.85,12.68 0.53,4.05 1.47,9.742 1.58,11.089 0.17,1.391 -0.11,6.403 5.61,6.832 5.71,0.442 6.27,-4.621 6.82,-10.101 0.44,-5.508 -2.47,-25.957 -7.05,-38.641 -4.6,-12.769 -10.15,-22.976 -16.47,-30.679 -6.35,-7.848 -12.53,-13.399 -18.61,-16.809 -6.96,-4.219 -15.06,-6.762 -24.21,-7.648 -9.26,-0.84 -17.72,1.289 -25.32,6.437 -12.67,9.25 -22.32,23.672 -28.76,43.352 -3.77,11.5 -5.71,26.66 -6.15,45.507 -0.56,18.864 0.05,37.282 1.81,55.282 l 10.06,95.64" />
        <path
           inkscape:connector-curvature="0"
           id="path70"
           style="fill:#eeb00e;fill-opacity:1;fill-rule:nonzero;stroke:none"
           d="m 5586.88,43.9414 c 0,-24.25 19.66,-43.9531188 43.93,-43.9531188 h 487.09 c 24.24,0 43.93,19.7031188 43.93,43.9531188 V 531 c 0,24.281 -19.69,43.941 -43.93,43.941 h -487.09 c -24.27,0 -43.93,-19.66 -43.93,-43.941 V 43.9414" />
        <path
           inkscape:connector-curvature="0"
           id="path72"
           style="fill:#ffffff;fill-opacity:1;fill-rule:nonzero;stroke:none"
           d="m 5720.77,312.789 c -3.46,1.57 -3.39,8.383 0.26,18.77 4.63,12.562 9.51,21.55 16.41,30.371 6.35,8.269 20.41,20.129 30.78,24.761 10.32,4.637 21.53,6.168 35.64,6.438 17.72,0.359 43.9,-8.848 74.13,-21.348 30.28,-12.511 57.96,-18.41 70.94,-18.222 19.08,0.222 38.3,3.992 54.85,15.722 9.87,6.93 13.9,11.688 18.53,21.188 1.46,2.922 3.33,3.57 5.32,2.41 3.22,-1.777 3.07,-6.301 2.27,-12.238 -4.55,-31.379 -18.07,-48.352 -32,-57.832 -7.26,-4.911 -18,-11.77 -33.86,-13.61 -15.94,-1.808 -43.68,3.153 -52.42,5.531 -17.19,4.598 -38.15,14.532 -50.72,19.489 -12.45,5.031 -21.96,9.793 -28.34,11.75 -5.05,1.383 -24.87,8.621 -43.04,7.832 -9.93,-0.43 -27.1,-4.129 -39.96,-12.391 -10.73,-6.969 -17.66,-15.84 -21.78,-23.582 -1.9,-3.566 -4.46,-6.269 -7.01,-5.039" />
        <path
           inkscape:connector-curvature="0"
           id="path74"
           style="fill:#ffffff;fill-opacity:1;fill-rule:nonzero;stroke:none"
           d="m 5720.77,185.762 c -3.46,1.597 -3.39,8.398 0.26,18.769 4.63,12.578 9.51,21.539 16.41,30.36 6.35,8.269 20.41,20.16 30.78,24.757 10.32,4.653 21.53,6.192 35.64,6.473 17.72,0.359 43.9,-8.851 74.13,-21.371 30.28,-12.488 57.96,-18.398 70.94,-18.211 19.08,0.211 38.3,3.981 54.85,15.731 9.87,6.929 13.9,11.671 18.53,21.179 1.46,2.903 3.33,3.551 5.32,2.41 3.22,-1.789 3.07,-6.289 2.27,-12.25 -4.55,-31.379 -18.07,-48.347 -32,-57.828 -7.26,-4.902 -18,-11.75 -33.86,-13.601 -15.94,-1.828 -43.68,3.148 -52.42,5.539 -17.19,4.59 -38.15,14.531 -50.72,19.492 -12.45,5.019 -21.96,9.758 -28.34,11.738 -5.05,1.379 -24.87,8.621 -43.04,7.832 -9.93,-0.429 -27.1,-4.121 -39.96,-12.383 -10.73,-7 -17.66,-15.847 -21.78,-23.597 -1.9,-3.563 -4.46,-6.262 -7.01,-5.039" />
        <path
           inkscape:connector-curvature="0"
           id="path76"
           style="fill:#00a770;fill-opacity:1;fill-rule:nonzero;stroke:none"
           d="m 6238.73,43.9414 c 0,-24.25 19.66,-43.9531188 43.93,-43.9531188 h 487.06 c 24.27,0 43.92,19.7031188 43.92,43.9531188 V 531 c 0,24.281 -19.65,43.941 -43.92,43.941 h -487.06 c -24.27,0 -43.93,-19.66 -43.93,-43.941 V 43.9414" />
        <path
           inkscape:connector-curvature="0"
           id="path78"
           style="fill:#ffffff;fill-opacity:1;fill-rule:nonzero;stroke:none"
           d="m 6670.16,161.031 -61.26,66.348 c 2.61,8.41 3.83,14.141 5.38,22.133 2.49,13.328 3.49,32.16 1.1,45.179 -0.71,3.989 -2.07,7.84 -4.99,9.7 -1.66,1.097 -5.07,1.461 -7.23,0.359 -1.89,-1 -3.64,-3.781 -3.91,-5.281 -0.72,-3.61 -1.45,-7.719 -1.94,-11.539 -0.23,-1.68 -0.39,-3.078 -0.53,-3.86 -0.8,-4.949 -1.8,-17.519 -3.58,-24.09 -1.25,-4.601 -2,-5.941 -4.11,-11.199 l -55.15,59.739 c 13.44,10.902 22.57,19.71 30.48,29.41 14.5,17.82 19.97,30.39 20.13,46.3 0.14,10.25 -1.28,17.551 -5.05,25.981 -1.69,3.711 -5.12,11.328 -13.31,18.687 -7.49,6.692 -14.69,11.223 -22.65,14.161 -8.22,3.101 -16.12,5.671 -28.85,5.671 -4.52,0 -9.35,-0.3 -14.97,-0.929 -20.2,-2.192 -38,-11.02 -50.03,-24.801 -10.85,-12.281 -14.82,-29.25 -14.92,-40.051 -0.23,-14.347 4.91,-30.609 13.7,-43.551 5.74,-8.429 11.39,-14.277 20.77,-23.949 l 4.91,-5.09 c -20.56,-15.07 -31.45,-24.39 -44.46,-37.968 -14.94,-15.621 -28.51,-31.93 -29.67,-60.11 -0.89,-19.961 9.07,-41.402 25.96,-55.922 16.22,-14.007 40.76,-21.718 69.05,-21.718 4.3,0 8.71,0.179 13.09,0.531 30.31,2.578 46.03,12.598 56.35,21.039 8.49,6.969 15.37,13.148 25.79,28.539 l 35.72,-39.629 0.39,-0.371 h 41.82 c 0.22,0.02 5.85,0.461 7.44,5.609 1.37,4.551 -4.84,10.121 -5.47,10.672 m -159.51,171.918 c -10.07,10.653 -20.25,22.852 -24.77,29.09 -3.39,4.633 -7.74,12.789 -9.04,20.59 -0.36,2.48 -1.16,11.121 4.77,18.902 3.29,4.239 7.98,8.989 18.35,12.168 3.56,1.09 8.19,1.692 12.98,1.692 5.19,0 10.4,-0.7 14.65,-2 8.4,-2.582 14.31,-7.621 18.5,-15.852 5.74,-11.398 3.13,-24.098 -7.57,-36.73 -10.13,-11.911 -18.26,-20.071 -27.87,-27.86 m -44.18,-78.258 c 7.01,8.661 17.03,17.489 32.39,28.59 l 68.16,-75.851 c -5.8,-7.649 -11.59,-14.45 -22.18,-20.469 -10.82,-6.18 -21.66,-9.07 -37.42,-9.84 -1.25,-0.051 -2.49,-0.101 -3.8,-0.101 -13.02,0 -24.1,3.511 -32.94,10.39 -10.7,8.328 -15.97,19.512 -16.62,35.11 -0.51,13.671 3.65,21.269 12.41,32.171" />
        <path
           inkscape:connector-curvature="0"
           id="path80"
           style="fill:#f25b28;fill-opacity:1;fill-rule:nonzero;stroke:none"
           d="m 3631.37,43.9414 c 0,-24.25 19.67,-43.9531188 43.9,-43.9531188 h 487.08 c 24.27,0 43.94,19.7031188 43.94,43.9531188 V 531 c 0,24.281 -19.67,43.941 -43.94,43.941 h -487.08 c -24.23,0 -43.9,-19.66 -43.9,-43.941 V 43.9414" />
        <path
           inkscape:connector-curvature="0"
           id="path82"
           style="fill:#ffffff;fill-opacity:1;fill-rule:nonzero;stroke:none"
           d="m 3880.7,382.32 c 0,31.309 -25.38,56.7 -56.69,56.7 -31.31,0 -56.7,-25.391 -56.7,-56.7 0,-31.32 25.39,-56.699 56.7,-56.699 31.31,0 56.69,25.379 56.69,56.699" />
        <path
           inkscape:connector-curvature="0"
           id="path84"
           style="fill:#ffffff;fill-opacity:1;fill-rule:nonzero;stroke:none"
           d="m 3880.7,208.371 c 0,31.309 -25.38,56.699 -56.69,56.699 -31.31,0 -56.7,-25.39 -56.7,-56.699 0,-31.32 25.39,-56.699 56.7,-56.699 31.31,0 56.69,25.379 56.69,56.699" />
      </g>
    </g>
  </g>
</svg>
