<?xml version="1.0" encoding="UTF-8" standalone="no"?>
<!-- Created with Inkscape (http://www.inkscape.org/) -->

<svg
   xmlns:dc="http://purl.org/dc/elements/1.1/"
   xmlns:cc="http://creativecommons.org/ns#"
   xmlns:rdf="http://www.w3.org/1999/02/22-rdf-syntax-ns#"
   xmlns:svg="http://www.w3.org/2000/svg"
   xmlns="http://www.w3.org/2000/svg"
   xmlns:sodipodi="http://sodipodi.sourceforge.net/DTD/sodipodi-0.dtd"
   xmlns:inkscape="http://www.inkscape.org/namespaces/inkscape"
   width="23.118999mm"
   height="23.118999mm"
   viewBox="0 0 23.118999 23.119"
   version="1.1"
   id="svg8"
   inkscape:version="0.92.4 (5da689c313, 2019-01-14)"
   sodipodi:docname="Latex.svg"
   inkscape:export-filename="C:\work\OneDrive - HESSO\hevs\10_Course\01_Admin\logo\latex-document.png"
   inkscape:export-xdpi="549.33002"
   inkscape:export-ydpi="549.33002">
  <defs
     id="defs2" />
  <sodipodi:namedview
     id="base"
     pagecolor="#ffffff"
     bordercolor="#666666"
     borderopacity="1.0"
     inkscape:pageopacity="0.0"
     inkscape:pageshadow="2"
     inkscape:zoom="5.6568542"
     inkscape:cx="193.58274"
     inkscape:cy="17.277423"
     inkscape:document-units="mm"
     inkscape:current-layer="layer1"
     showgrid="false"
     inkscape:window-width="3440"
     inkscape:window-height="1377"
     inkscape:window-x="-8"
     inkscape:window-y="32"
     inkscape:window-maximized="1"
     fit-margin-top="0"
     fit-margin-left="0"
     fit-margin-right="0"
     fit-margin-bottom="0" />
  <metadata
     id="metadata5">
    <rdf:RDF>
      <cc:Work
         rdf:about="">
        <dc:format>image/svg+xml</dc:format>
        <dc:type
           rdf:resource="http://purl.org/dc/dcmitype/StillImage" />
        <dc:title />
      </cc:Work>
    </rdf:RDF>
  </metadata>
  <g
     inkscape:label="Layer 1"
     inkscape:groupmode="layer"
     id="layer1"
     style="opacity:1"
     transform="translate(-59.839396,-122.06852)">
    <circle
       id="path59"
       cx="71.310631"
       cy="133.62802"
       style="fill:#c8306f;fill-opacity:1;stroke-width:0.19988333"
       r="11.5595"
       inkscape:export-xdpi="549.33002"
       inkscape:export-ydpi="549.33002" />
    <path
       style="color:#000000;font-style:normal;font-variant:normal;font-weight:normal;font-stretch:normal;font-size:medium;line-height:normal;font-family:sans-serif;font-variant-ligatures:normal;font-variant-position:normal;font-variant-caps:normal;font-variant-numeric:normal;font-variant-alternates:normal;font-feature-settings:normal;text-indent:0;text-align:start;text-decoration:none;text-decoration-line:none;text-decoration-style:solid;text-decoration-color:#000000;letter-spacing:normal;word-spacing:normal;text-transform:none;writing-mode:lr-tb;direction:ltr;text-orientation:mixed;dominant-baseline:auto;baseline-shift:baseline;text-anchor:start;white-space:normal;shape-padding:0;clip-rule:nonzero;display:inline;overflow:visible;visibility:visible;opacity:1;isolation:auto;mix-blend-mode:normal;color-interpolation:sRGB;color-interpolation-filters:linearRGB;solid-color:#000000;solid-opacity:1;vector-effect:none;fill:#000000;fill-opacity:0.34806632;fill-rule:nonzero;stroke:none;stroke-width:0.99999994;stroke-linecap:butt;stroke-linejoin:miter;stroke-miterlimit:4;stroke-dasharray:none;stroke-dashoffset:0;stroke-opacity:1;color-rendering:auto;image-rendering:auto;shape-rendering:auto;text-rendering:auto;enable-background:accumulate"
       d="M 68.861328 30.962891 L 57.302734 31.708984 L 56.53125 56.787109 L 31.804688 56.851562 L 17.404297 60.900391 L 44.904297 87.324219 A 43.689448 43.689448 0 0 0 86.708984 48.828125 L 68.861328 30.962891 z "
       transform="matrix(0.26458333,0,0,0.26458333,59.839396,122.06852)"
       id="rect4880" />
    <g
       id="g1015"
       transform="matrix(0.12584555,0,0,0.12584555,63.151756,125.51098)"
       inkscape:transform-center-x="-1.9197779"
       inkscape:transform-center-y="-8.9035725">
      <rect
         id="rect890"
         y="17"
         x="11"
         width="68"
         height="83"
         class="st1"
         style="fill:#ffffff" />
      <g
         id="g973"
         transform="translate(121.60192,11.873235)">
        <line
           id="line888"
           y2="50.522045"
           y1="50.522045"
           x2="-80.727577"
           x1="-103.46391"
           class="st34"
           style="opacity:0.2;fill:none;stroke:#242c88;stroke-width:2.75295854;stroke-linecap:round;stroke-linejoin:round;stroke-miterlimit:10" />
        <line
           id="line890"
           y2="45.522053"
           y1="45.522053"
           x2="-57.991215"
           x1="-103.46391"
           class="st34"
           style="opacity:0.2;fill:none;stroke:#242c88;stroke-width:2.75295854;stroke-linecap:round;stroke-linejoin:round;stroke-miterlimit:10" />
        <line
           id="line892"
           y2="61.317158"
           y1="61.317158"
           x2="-57.991215"
           x1="-103.46391"
           class="st34"
           style="opacity:0.2;fill:none;stroke:#242c88;stroke-width:2.75295854;stroke-linecap:round;stroke-linejoin:round;stroke-miterlimit:10" />
        <line
           id="line894"
           y2="74.702492"
           y1="74.702492"
           x2="-80.727577"
           x1="-103.46391"
           class="st34"
           style="opacity:0.2;fill:none;stroke:#242c88;stroke-width:2.75295854;stroke-linecap:round;stroke-linejoin:round;stroke-miterlimit:10" />
        <line
           id="line896"
           y2="69.702492"
           y1="69.702492"
           x2="-57.991215"
           x1="-103.46391"
           class="st34"
           style="opacity:0.2;fill:none;stroke:#242c88;stroke-width:2.75295854;stroke-linecap:round;stroke-linejoin:round;stroke-miterlimit:10" />
        <g
           style="overflow:scroll;opacity:1"
           id="g911"
           transform="matrix(0.04499865,0,0,0.04499865,-107.00168,19.065973)">
          <g
             id="g909"
             transform="matrix(45,0,0,45,40,40)"
             style="fill:#000000">
            <path
               id="path898"
               d="m 5.46,4.23 c 0,0 -0.25,0 -0.25,0 -0.1,1.02 -0.24,2.26 -2,2.26 0,0 -0.81,0 -0.81,0 -0.47,0 -0.49,-0.07 -0.49,-0.4 0,0 0,-5.31 0,-5.31 0,-0.34 0,-0.48 0.94,-0.48 0,0 0.33,0 0.33,0 0,0 0,-0.3 0,-0.3 C 2.82,0.03 1.92,0.03 1.51,0.03 1.12,0.03 0.34,0.03 0,0 c 0,0 0,0.3 0,0.3 0,0 0.23,0 0.23,0 0.77,0 0.79,0.11 0.79,0.47 0,0 0,5.25 0,5.25 0,0.36 -0.02,0.47 -0.79,0.47 0,0 -0.23,0 -0.23,0 0,0 0,0.31 0,0.31 0,0 5.19,0 5.19,0 0,0 0.27,-2.57 0.27,-2.57 z"
               transform="translate(0,0.17)"
               inkscape:connector-curvature="0" />
            <path
               id="path900"
               d="M 2.81,0.16 C 2.77,0.04 2.75,0 2.62,0 2.49,0 2.46,0.04 2.42,0.16 2.42,0.16 0.81,4.24 0.81,4.24 0.74,4.41 0.62,4.72 0,4.72 c 0,0 0,0.25 0,0.25 0,0 1.55,0 1.55,0 0,0 0,-0.25 0,-0.25 -0.31,0 -0.5,-0.14 -0.5,-0.34 0,-0.05 0.01,-0.07 0.03,-0.14 0,0 0.34,-0.86 0.34,-0.86 0,0 1.98,0 1.98,0 0,0 0.4,1.02 0.4,1.02 0.02,0.04 0.04,0.09 0.04,0.12 0,0.2 -0.38,0.2 -0.57,0.2 0,0 0,0.25 0,0.25 0,0 1.97,0 1.97,0 0,0 0,-0.25 0,-0.25 0,0 -0.14,0 -0.14,0 -0.47,0 -0.52,-0.07 -0.59,-0.27 0,0 -1.7,-4.29 -1.7,-4.29 z m -0.4,0.71 c 0,0 0.89,2.26 0.89,2.26 0,0 -1.78,0 -1.78,0 0,0 0.89,-2.26 0.89,-2.26 z"
               transform="translate(2.48)"
               inkscape:connector-curvature="0" />
            <path
               id="path902"
               d="M 6.27,0 C 6.27,0 0.18,0 0.18,0 0.18,0 0,2.24 0,2.24 c 0,0 0.24,0 0.24,0 0.14,-1.61 0.29,-1.94 1.8,-1.94 0.18,0 0.44,0 0.54,0.02 0.21,0.04 0.21,0.15 0.21,0.38 0,0 0,5.25 0,5.25 0,0.34 0,0.48 -1.05,0.48 0,0 -0.4,0 -0.4,0 0,0 0,0.31 0,0.31 0.41,-0.03 1.42,-0.03 1.88,-0.03 0.46,0 1.49,0 1.9,0.03 0,0 0,-0.31 0,-0.31 0,0 -0.4,0 -0.4,0 -1.05,0 -1.05,-0.14 -1.05,-0.48 0,0 0,-5.25 0,-5.25 0,-0.2 0,-0.34 0.18,-0.38 C 3.96,0.3 4.23,0.3 4.42,0.3 c 1.5,0 1.65,0.33 1.79,1.94 0,0 0.25,0 0.25,0 C 6.46,2.24 6.27,0 6.27,0 Z"
               transform="translate(7.03,0.23)"
               inkscape:connector-curvature="0" />
            <path
               id="path904"
               d="m 6.16,4.2 c 0,0 -0.25,0 -0.25,0 -0.25,1.53 -0.48,2.26 -2.19,2.26 0,0 -1.32,0 -1.32,0 -0.47,0 -0.49,-0.07 -0.49,-0.4 0,0 0,-2.66 0,-2.66 0,0 0.89,0 0.89,0 0.97,0 1.08,0.32 1.08,1.17 0,0 0.25,0 0.25,0 0,0 0,-2.64 0,-2.64 0,0 -0.25,0 -0.25,0 0,0.85 -0.11,1.16 -1.08,1.16 0,0 -0.89,0 -0.89,0 0,0 0,-2.39 0,-2.39 0,-0.33 0.02,-0.4 0.49,-0.4 0,0 1.28,0 1.28,0 1.53,0 1.79,0.55 1.95,1.94 0,0 0.25,0 0.25,0 C 5.88,2.24 5.6,0 5.6,0 5.6,0 0,0 0,0 c 0,0 0,0.3 0,0.3 0,0 0.23,0 0.23,0 0.77,0 0.79,0.11 0.79,0.47 0,0 0,5.22 0,5.22 0,0.36 -0.02,0.47 -0.79,0.47 0,0 -0.23,0 -0.23,0 0,0 0,0.31 0,0.31 0,0 5.74,0 5.74,0 0,0 0.42,-2.57 0.42,-2.57 z"
               transform="translate(12.5,2.45)"
               inkscape:connector-curvature="0" />
            <path
               id="path907"
               d="m 3.76,2.95 c 0,0 1.37,-2 1.37,-2 0.21,-0.32 0.55,-0.64 1.44,-0.65 0,0 0,-0.3 0,-0.3 0,0 -2.38,0 -2.38,0 0,0 0,0.3 0,0.3 0.4,0.01 0.62,0.23 0.62,0.46 0,0.1 -0.02,0.12 -0.09,0.23 0,0 -1.14,1.68 -1.14,1.68 C 3.58,2.67 2.3,0.75 2.3,0.75 2.28,0.72 2.23,0.64 2.23,0.6 c 0,-0.12 0.22,-0.29 0.64,-0.3 0,0 0,-0.3 0,-0.3 C 2.53,0.03 1.8,0.03 1.42,0.03 1.11,0.03 0.49,0.02 0.12,0 c 0,0 0,0.3 0,0.3 0,0 0.19,0 0.19,0 0.55,0 0.74,0.07 0.93,0.35 0,0 1.83,2.77 1.83,2.77 0,0 -1.63,2.41 -1.63,2.41 C 1.3,6.03 1,6.49 0,6.49 c 0,0 0,0.31 0,0.31 0,0 2.38,0 2.38,0 0,0 0,-0.31 0,-0.31 C 1.92,6.48 1.75,6.21 1.75,6.03 c 0,-0.09 0.03,-0.13 0.1,-0.24 0,0 1.41,-2.09 1.41,-2.09 0,0 1.58,2.38 1.58,2.38 0.02,0.04 0.05,0.08 0.05,0.11 0,0.12 -0.22,0.29 -0.65,0.3 0,0 0,0.31 0,0.31 0.35,-0.03 1.08,-0.03 1.45,-0.03 0.42,0 0.88,0.01 1.3,0.03 0,0 0,-0.31 0,-0.31 0,0 -0.19,0 -0.19,0 -0.52,0 -0.73,-0.05 -0.94,-0.36 0,0 -2.1,-3.18 -2.1,-3.18 z"
               transform="translate(17.91,0.17)"
               inkscape:connector-curvature="0" />
          </g>
        </g>
      </g>
      <rect
         id="rect892"
         y="17"
         x="11"
         width="68"
         height="83"
         class="st2"
         style="fill:none;stroke:#242c88;stroke-width:2;stroke-linecap:round;stroke-linejoin:round;stroke-miterlimit:10" />
      <path
         id="path906"
         d="M 79,101 V 24 H 28 c -1.1,0 -2,0.9 -2,2 v 75 z"
         class="st16"
         inkscape:connector-curvature="0"
         style="opacity:0.2;fill:#242c88" />
      <rect
         id="rect908"
         y="29"
         x="31"
         width="68"
         height="83"
         class="st1"
         style="fill:#ffffff" />
      <rect
         id="rect910"
         y="29"
         x="31"
         width="68"
         height="83"
         class="st2"
         style="fill:none;stroke:#242c88;stroke-width:2;stroke-linecap:round;stroke-linejoin:round;stroke-miterlimit:10" />
      <line
         id="line912"
         y2="69.819557"
         y1="69.819557"
         x2="64.263657"
         x1="41.527317"
         class="st34"
         style="opacity:0.2;fill:none;stroke:#242c88;stroke-width:2.75295854;stroke-linecap:round;stroke-linejoin:round;stroke-miterlimit:10" />
      <line
         id="line914"
         y2="64.819565"
         y1="64.819565"
         x2="87"
         x1="41.527317"
         class="st34"
         style="opacity:0.2;fill:none;stroke:#242c88;stroke-width:2.75295854;stroke-linecap:round;stroke-linejoin:round;stroke-miterlimit:10" />
      <line
         id="line920"
         y2="74"
         y1="74"
         x2="75"
         x1="63"
         class="st34"
         style="opacity:0.2;fill:none;stroke:#242c88;stroke-width:2;stroke-linecap:round;stroke-linejoin:round;stroke-miterlimit:10" />
      <line
         id="line922"
         y2="80.614662"
         y1="80.614662"
         x2="87"
         x1="41.527317"
         class="st34"
         style="opacity:0.2;fill:none;stroke:#242c88;stroke-width:2.75295854;stroke-linecap:round;stroke-linejoin:round;stroke-miterlimit:10" />
      <line
         id="line928"
         y2="94"
         y1="94"
         x2="64.263657"
         x1="41.527317"
         class="st34"
         style="opacity:0.2;fill:none;stroke:#242c88;stroke-width:2.75295854;stroke-linecap:round;stroke-linejoin:round;stroke-miterlimit:10" />
      <line
         id="line930"
         y2="89"
         y1="89"
         x2="87"
         x1="41.527317"
         class="st34"
         style="opacity:0.2;fill:none;stroke:#242c88;stroke-width:2.75295854;stroke-linecap:round;stroke-linejoin:round;stroke-miterlimit:10" />
      <polygon
         id="polygon940"
         points="99,78.6 99,57.6 65.2,77.5 53.6,94.9 74.4,93.1 "
         class="st16"
         style="opacity:0.2;fill:#242c88" />
      <g
         style="overflow:scroll;opacity:1"
         id="g886"
         transform="matrix(0.04499865,0,0,0.04499865,38.150283,35.515571)">
        <g
           id="g870"
           transform="matrix(45,0,0,45,40,40)"
           style="fill:#000000">
          <path
             id="path860"
             d="m 5.46,4.23 c 0,0 -0.25,0 -0.25,0 -0.1,1.02 -0.24,2.26 -2,2.26 0,0 -0.81,0 -0.81,0 -0.47,0 -0.49,-0.07 -0.49,-0.4 0,0 0,-5.31 0,-5.31 0,-0.34 0,-0.48 0.94,-0.48 0,0 0.33,0 0.33,0 0,0 0,-0.3 0,-0.3 C 2.82,0.03 1.92,0.03 1.51,0.03 1.12,0.03 0.34,0.03 0,0 c 0,0 0,0.3 0,0.3 0,0 0.23,0 0.23,0 0.77,0 0.79,0.11 0.79,0.47 0,0 0,5.25 0,5.25 0,0.36 -0.02,0.47 -0.79,0.47 0,0 -0.23,0 -0.23,0 0,0 0,0.31 0,0.31 0,0 5.19,0 5.19,0 0,0 0.27,-2.57 0.27,-2.57 z"
             transform="translate(0,0.17)"
             inkscape:connector-curvature="0" />
          <path
             id="path862"
             d="M 2.81,0.16 C 2.77,0.04 2.75,0 2.62,0 2.49,0 2.46,0.04 2.42,0.16 2.42,0.16 0.81,4.24 0.81,4.24 0.74,4.41 0.62,4.72 0,4.72 c 0,0 0,0.25 0,0.25 0,0 1.55,0 1.55,0 0,0 0,-0.25 0,-0.25 -0.31,0 -0.5,-0.14 -0.5,-0.34 0,-0.05 0.01,-0.07 0.03,-0.14 0,0 0.34,-0.86 0.34,-0.86 0,0 1.98,0 1.98,0 0,0 0.4,1.02 0.4,1.02 0.02,0.04 0.04,0.09 0.04,0.12 0,0.2 -0.38,0.2 -0.57,0.2 0,0 0,0.25 0,0.25 0,0 1.97,0 1.97,0 0,0 0,-0.25 0,-0.25 0,0 -0.14,0 -0.14,0 -0.47,0 -0.52,-0.07 -0.59,-0.27 0,0 -1.7,-4.29 -1.7,-4.29 z m -0.4,0.71 c 0,0 0.89,2.26 0.89,2.26 0,0 -1.78,0 -1.78,0 0,0 0.89,-2.26 0.89,-2.26 z"
             transform="translate(2.48)"
             inkscape:connector-curvature="0" />
          <path
             id="path864"
             d="M 6.27,0 C 6.27,0 0.18,0 0.18,0 0.18,0 0,2.24 0,2.24 c 0,0 0.24,0 0.24,0 0.14,-1.61 0.29,-1.94 1.8,-1.94 0.18,0 0.44,0 0.54,0.02 0.21,0.04 0.21,0.15 0.21,0.38 0,0 0,5.25 0,5.25 0,0.34 0,0.48 -1.05,0.48 0,0 -0.4,0 -0.4,0 0,0 0,0.31 0,0.31 0.41,-0.03 1.42,-0.03 1.88,-0.03 0.46,0 1.49,0 1.9,0.03 0,0 0,-0.31 0,-0.31 0,0 -0.4,0 -0.4,0 -1.05,0 -1.05,-0.14 -1.05,-0.48 0,0 0,-5.25 0,-5.25 0,-0.2 0,-0.34 0.18,-0.38 C 3.96,0.3 4.23,0.3 4.42,0.3 c 1.5,0 1.65,0.33 1.79,1.94 0,0 0.25,0 0.25,0 C 6.46,2.24 6.27,0 6.27,0 Z"
             transform="translate(7.03,0.23)"
             inkscape:connector-curvature="0" />
          <path
             id="path866"
             d="m 6.16,4.2 c 0,0 -0.25,0 -0.25,0 -0.25,1.53 -0.48,2.26 -2.19,2.26 0,0 -1.32,0 -1.32,0 -0.47,0 -0.49,-0.07 -0.49,-0.4 0,0 0,-2.66 0,-2.66 0,0 0.89,0 0.89,0 0.97,0 1.08,0.32 1.08,1.17 0,0 0.25,0 0.25,0 0,0 0,-2.64 0,-2.64 0,0 -0.25,0 -0.25,0 0,0.85 -0.11,1.16 -1.08,1.16 0,0 -0.89,0 -0.89,0 0,0 0,-2.39 0,-2.39 0,-0.33 0.02,-0.4 0.49,-0.4 0,0 1.28,0 1.28,0 1.53,0 1.79,0.55 1.95,1.94 0,0 0.25,0 0.25,0 C 5.88,2.24 5.6,0 5.6,0 5.6,0 0,0 0,0 c 0,0 0,0.3 0,0.3 0,0 0.23,0 0.23,0 0.77,0 0.79,0.11 0.79,0.47 0,0 0,5.22 0,5.22 0,0.36 -0.02,0.47 -0.79,0.47 0,0 -0.23,0 -0.23,0 0,0 0,0.31 0,0.31 0,0 5.74,0 5.74,0 0,0 0.42,-2.57 0.42,-2.57 z"
             transform="translate(12.5,2.45)"
             inkscape:connector-curvature="0" />
          <path
             id="path868"
             d="m 3.76,2.95 c 0,0 1.37,-2 1.37,-2 0.21,-0.32 0.55,-0.64 1.44,-0.65 0,0 0,-0.3 0,-0.3 0,0 -2.38,0 -2.38,0 0,0 0,0.3 0,0.3 0.4,0.01 0.62,0.23 0.62,0.46 0,0.1 -0.02,0.12 -0.09,0.23 0,0 -1.14,1.68 -1.14,1.68 C 3.58,2.67 2.3,0.75 2.3,0.75 2.28,0.72 2.23,0.64 2.23,0.6 c 0,-0.12 0.22,-0.29 0.64,-0.3 0,0 0,-0.3 0,-0.3 C 2.53,0.03 1.8,0.03 1.42,0.03 1.11,0.03 0.49,0.02 0.12,0 c 0,0 0,0.3 0,0.3 0,0 0.19,0 0.19,0 0.55,0 0.74,0.07 0.93,0.35 0,0 1.83,2.77 1.83,2.77 0,0 -1.63,2.41 -1.63,2.41 C 1.3,6.03 1,6.49 0,6.49 c 0,0 0,0.31 0,0.31 0,0 2.38,0 2.38,0 0,0 0,-0.31 0,-0.31 C 1.92,6.48 1.75,6.21 1.75,6.03 c 0,-0.09 0.03,-0.13 0.1,-0.24 0,0 1.41,-2.09 1.41,-2.09 0,0 1.58,2.38 1.58,2.38 0.02,0.04 0.05,0.08 0.05,0.11 0,0.12 -0.22,0.29 -0.65,0.3 0,0 0,0.31 0,0.31 0.35,-0.03 1.08,-0.03 1.45,-0.03 0.42,0 0.88,0.01 1.3,0.03 0,0 0,-0.31 0,-0.31 0,0 -0.19,0 -0.19,0 -0.52,0 -0.73,-0.05 -0.94,-0.36 0,0 -2.1,-3.18 -2.1,-3.18 z"
             transform="translate(17.91,0.17)"
             inkscape:connector-curvature="0" />
        </g>
      </g>
      <g
         id="g966">
        <polygon
           id="polygon942"
           points="98.6,37.3 111.4,50.1 73.8,87.7 54.1,94.6 61,74.9 "
           class="st1"
           style="fill:#ffffff" />
        <rect
           id="rect944"
           y="53.5"
           x="59.599998"
           width="53.200001"
           transform="matrix(0.7071,-0.7071,0.7071,0.7071,-18.9596,79.2808)"
           height="18.1"
           class="st18"
           style="fill:#ffc408" />
        <rect
           id="rect946"
           y="64.400002"
           x="64.099998"
           width="53.200001"
           transform="matrix(0.7071,-0.7071,0.7071,0.7071,-20.8293,83.7946)"
           height="5.3000002"
           class="st16"
           style="opacity:0.2;fill:#242c88" />
        <polygon
           id="polygon948"
           points="54.1,94.4 62.5,91.4 57.1,86 "
           class="st3"
           style="fill:#5e61a3" />
        <polygon
           id="polygon950"
           points="98.6,37.3 111.4,50.1 73.8,87.7 54.1,94.6 61,74.9 "
           class="st2"
           style="fill:none;stroke:#242c88;stroke-width:2;stroke-linecap:round;stroke-linejoin:round;stroke-miterlimit:10" />
        <path
           id="path952"
           d="m 111.4,50.1 6,-6 c 1.7,-1.7 1.7,-4.4 0,-6 l -6.8,-6.8 c -1.7,-1.7 -4.4,-1.7 -6,0 l -6,6 z"
           class="st13"
           inkscape:connector-curvature="0"
           style="fill:#f3877e" />
        <path
           id="path954"
           d="m 111.4,50.1 6,-6 c 1.7,-1.7 1.7,-4.4 0,-6 l -6.8,-6.8 c -1.7,-1.7 -4.4,-1.7 -6,0 l -6,6 z"
           class="st2"
           inkscape:connector-curvature="0"
           style="fill:none;stroke:#242c88;stroke-width:2;stroke-linecap:round;stroke-linejoin:round;stroke-miterlimit:10" />
        <line
           id="line956"
           y2="47.099998"
           y1="73.400002"
           x2="106.9"
           x1="80.599998"
           class="st2"
           style="fill:none;stroke:#242c88;stroke-width:2;stroke-linecap:round;stroke-linejoin:round;stroke-miterlimit:10" />
        <line
           id="line958"
           y2="77.900002"
           y1="84"
           x2="76.099998"
           x1="70"
           class="st2"
           style="fill:none;stroke:#242c88;stroke-width:2;stroke-linecap:round;stroke-linejoin:round;stroke-miterlimit:10" />
        <rect
           id="rect960"
           y="35.099998"
           x="100.9"
           width="7.4000001"
           transform="matrix(0.7071,-0.7071,0.7071,0.7071,-0.5282,86.9153)"
           height="18.1"
           class="st1"
           style="fill:#ffffff" />
        <rect
           id="rect962"
           y="35.099998"
           x="100.9"
           width="7.4000001"
           transform="matrix(0.7071,-0.7071,0.7071,0.7071,-0.5282,86.9153)"
           height="18.1"
           class="st16"
           style="opacity:0.2;fill:#242c88" />
        <rect
           id="rect964"
           y="35.099998"
           x="100.9"
           width="7.4000001"
           transform="matrix(0.7071,-0.7071,0.7071,0.7071,-0.5282,86.9153)"
           height="18.1"
           class="st2"
           style="fill:none;stroke:#242c88;stroke-width:2;stroke-linecap:round;stroke-linejoin:round;stroke-miterlimit:10" />
      </g>
    </g>
  </g>
  <style
     id="style888"
     type="text/css">
	.st0{opacity:0.2;fill:#FFFFFF;}
	.st1{fill:#FFFFFF;}
	.st2{fill:none;stroke:#242C88;stroke-width:2;stroke-linecap:round;stroke-linejoin:round;stroke-miterlimit:10;}
	.st3{fill:#5E61A3;}
	.st4{opacity:0.5;fill:#242C88;}
	.st5{fill:#39C89A;}
	.st6{fill:#CAEAFB;}
	.st7{fill:#589FFF;}
	.st8{fill:#FF5751;}
	.st9{fill:#BC8D66;}
	.st10{opacity:0.7;fill:#FFFFFF;}
	.st11{fill:#F1C92A;}
	.st12{opacity:0.4;fill:none;stroke:#FFFFFF;stroke-width:2;stroke-linecap:round;stroke-linejoin:round;stroke-miterlimit:10;}
	.st13{fill:#F3877E;}
	.st14{fill:#83D689;}
	.st15{opacity:0.4;fill:#242C88;}
	.st16{opacity:0.2;fill:#242C88;}
	
		.st17{fill:none;stroke:#FFFFFF;stroke-width:3;stroke-linecap:round;stroke-linejoin:round;stroke-miterlimit:10;stroke-dasharray:0.1,6;}
	.st18{fill:#FFC408;}
	
		.st19{opacity:0.4;fill:none;stroke:#FFFFFF;stroke-width:3;stroke-linecap:round;stroke-linejoin:round;stroke-miterlimit:10;stroke-dasharray:0.1,6;}
	.st20{fill:none;stroke:#CAEAFB;stroke-width:12;stroke-linecap:round;stroke-miterlimit:10;}
	.st21{fill:none;stroke:#CAEAFB;stroke-width:7;stroke-linecap:round;stroke-miterlimit:10;}
	.st22{opacity:0.4;fill:none;stroke:#242C88;stroke-width:2;stroke-linecap:round;stroke-linejoin:round;stroke-miterlimit:10;}
	.st23{opacity:0.5;}
	.st24{fill:#242C88;}
	
		.st25{fill:none;stroke:#242C88;stroke-width:3;stroke-linecap:round;stroke-linejoin:round;stroke-miterlimit:10;stroke-dasharray:0.1,6;}
	.st26{opacity:0.5;fill:#FFFFFF;}
	.st27{fill:none;stroke:#FFFFFF;stroke-width:3;stroke-linecap:round;stroke-linejoin:round;stroke-miterlimit:10;}
	.st28{fill:none;stroke:#FFFFFF;stroke-width:2;stroke-linecap:round;stroke-linejoin:round;stroke-miterlimit:10;}
	.st29{fill:#E5BD9E;}
	.st30{fill:#A06D47;}
	
		.st31{opacity:0.3;fill:none;stroke:#FFFFFF;stroke-width:3;stroke-linecap:round;stroke-linejoin:round;stroke-miterlimit:10;stroke-dasharray:0.1,6;}
	.st32{opacity:0.1;fill:#242C88;}
	.st33{opacity:0.5;fill:#FF5751;}
	.st34{opacity:0.2;fill:none;stroke:#242C88;stroke-width:2;stroke-linecap:round;stroke-linejoin:round;stroke-miterlimit:10;}
	.st35{opacity:0.3;clip-path:url(#SVGID_2_);}
	
		.st36{fill:none;stroke:#FFFFFF;stroke-width:3;stroke-linecap:round;stroke-linejoin:round;stroke-miterlimit:10;stroke-dasharray:0,6;}
	
		.st37{opacity:0.3;fill:none;stroke:#FFFFFF;stroke-width:3;stroke-linecap:round;stroke-linejoin:round;stroke-miterlimit:10;stroke-dasharray:0,6;}
	.st38{clip-path:url(#SVGID_4_);}
	.st39{opacity:0.2;fill:none;stroke:#242C88;stroke-width:9;stroke-linecap:round;stroke-linejoin:round;stroke-miterlimit:10;}
	.st40{opacity:0.3;}
	.st41{opacity:0.4;fill:#FFFFFF;}
	.st42{opacity:0.5;fill:#CAEAFB;}
	.st43{opacity:0.6;fill:#242C88;}
	.st44{opacity:0.5;fill:none;stroke:#242C88;stroke-width:2;stroke-linecap:round;stroke-linejoin:round;stroke-miterlimit:10;}
	.st45{opacity:0.3;fill:#242C88;}
	.st46{opacity:0.2;}
	
		.st47{clip-path:url(#SVGID_6_);fill:none;stroke:#242C88;stroke-width:2;stroke-linecap:round;stroke-linejoin:round;stroke-miterlimit:10;}
	.st48{opacity:0.2;fill:none;stroke:#FFFFFF;stroke-width:8;stroke-linecap:round;stroke-linejoin:round;stroke-miterlimit:10;}
	.st49{clip-path:url(#SVGID_8_);fill:#FFFFFF;}
	
		.st50{clip-path:url(#SVGID_8_);fill:none;stroke:#242C88;stroke-width:2;stroke-linecap:round;stroke-linejoin:round;stroke-miterlimit:10;}
	.st51{opacity:0.2;clip-path:url(#SVGID_8_);fill:#242C88;}
	
		.st52{opacity:0.2;clip-path:url(#SVGID_8_);fill:none;stroke:#242C88;stroke-width:2;stroke-linecap:round;stroke-linejoin:round;stroke-miterlimit:10;}
	.st53{fill:none;stroke:#242C88;stroke-width:1.848;stroke-linecap:round;stroke-linejoin:round;stroke-miterlimit:10;}
	.st54{opacity:0.4;fill:none;stroke:#FFFFFF;stroke-width:7;stroke-linecap:round;stroke-linejoin:round;stroke-miterlimit:10;}
	.st55{opacity:0.2;fill:none;stroke:#242C88;stroke-width:7;stroke-linecap:round;stroke-linejoin:round;stroke-miterlimit:10;}
	.st56{opacity:7.000000e-02;fill:#242C88;}
	.st57{fill:none;stroke:#FFFFFF;stroke-width:4;stroke-linecap:round;stroke-linejoin:round;stroke-miterlimit:10;}
	.st58{opacity:0.4;fill:none;stroke:#FFFFFF;stroke-width:8;stroke-linecap:round;stroke-linejoin:round;stroke-miterlimit:10;}
	.st59{opacity:0.2;fill:none;stroke:#242C88;stroke-width:8;stroke-linecap:round;stroke-linejoin:round;stroke-miterlimit:10;}
	.st60{fill:none;stroke:#FF5751;stroke-width:4;stroke-linecap:round;stroke-linejoin:round;stroke-miterlimit:10;}
	.st61{fill:none;stroke:#242C88;stroke-width:4;stroke-linecap:round;stroke-linejoin:round;stroke-miterlimit:10;}
</style>
</svg>
