<?xml version="1.0" encoding="UTF-8" standalone="no"?>
<svg
   xmlns:serif="http://www.serif.com/"
   xmlns:dc="http://purl.org/dc/elements/1.1/"
   xmlns:cc="http://creativecommons.org/ns#"
   xmlns:rdf="http://www.w3.org/1999/02/22-rdf-syntax-ns#"
   xmlns:svg="http://www.w3.org/2000/svg"
   xmlns="http://www.w3.org/2000/svg"
   xmlns:sodipodi="http://sodipodi.sourceforge.net/DTD/sodipodi-0.dtd"
   xmlns:inkscape="http://www.inkscape.org/namespaces/inkscape"
   width="391.3147"
   height="412.06866"
   viewBox="0 0 391.3147 412.06868"
   version="1.1"
   xml:space="preserve"
   style="clip-rule:evenodd;fill-rule:evenodd;stroke-linejoin:round;stroke-miterlimit:2"
   id="svg206"
   sodipodi:docname="smart-process-lab-2.svg"
   inkscape:version="0.92.4 (5da689c313, 2019-01-14)"><metadata
   id="metadata212"><rdf:RDF><cc:Work
       rdf:about=""><dc:format>image/svg+xml</dc:format><dc:type
         rdf:resource="http://purl.org/dc/dcmitype/StillImage" /><dc:title></dc:title></cc:Work></rdf:RDF></metadata><defs
   id="defs210">
            
            
        </defs><sodipodi:namedview
   pagecolor="#ffffff"
   bordercolor="#666666"
   borderopacity="1"
   objecttolerance="10"
   gridtolerance="10"
   guidetolerance="10"
   inkscape:pageopacity="0"
   inkscape:pageshadow="2"
   inkscape:window-width="1920"
   inkscape:window-height="1017"
   id="namedview208"
   showgrid="false"
   fit-margin-top="0"
   fit-margin-left="0"
   fit-margin-right="0"
   fit-margin-bottom="0"
   inkscape:zoom="0.75531105"
   inkscape:cx="79.321899"
   inkscape:cy="-208.44956"
   inkscape:window-x="-8"
   inkscape:window-y="32"
   inkscape:window-maximized="1"
   inkscape:current-layer="Logo-Dark-Complete" />
    <g
   transform="translate(-3157.7012,-4999.0678)"
   id="g204">
        <g
   transform="matrix(0.857143,0,0,0.3367,2281.5371,4768.6459)"
   serif:id="Logo Dark Complete"
   id="Logo-Dark-Complete">
                
                
                
                <g
   id="g200"
   transform="matrix(1.11754,-1.64253,0.645214,2.84495,-5895.53,9446.16)">
                    <g
   id="g198">
                        <g
   id="g188"
   transform="matrix(0.996011,0.575047,-0.575047,0.996011,5196.75,-441.893)">
                            <path
   inkscape:connector-curvature="0"
   id="path186"
   style="fill:#c6d92c"
   d="m 1005.33,347.064 c 4.22,0.103 8.4,1.228 12.06,3.285 0.15,0.084 0.33,0.188 0.33,0.188 l 135.72,79.197 c 6.65,-3.78 13.32,-7.534 19.96,-11.342 12.65,-7.396 14.32,-28.54 0.35,-37.067 -49.06,-29.392 -98.78,-57.694 -148.43,-86.069 -22.75,-12.877 -54.197,-7.868 -71.611,12.663 -8.515,10.039 -13.37,23.081 -13.527,36.285 -0.434,55.412 1.995,110.851 6.222,166.118 l 0.116,1.508 c 1.269,13.954 7.749,27.214 18.024,36.793 6.53,6.018 13.107,11.961 19.694,17.898 0,0 1.527,2.265 0.236,-0.475 -3.715,-8.014 -5.674,-16.785 -5.744,-25.592 -0.057,-55.987 0.029,-111.976 0.375,-167.962 0.198,-13.266 11.494,-25.206 25.395,-25.431 0.27,-0.002 0.55,-10e-4 0.83,0.003 z" />
                        </g>
                        <g
   id="g192"
   transform="matrix(0.996011,0.575047,-0.575047,0.996011,5196.75,-441.893)">
                            <path
   inkscape:connector-curvature="0"
   id="path190"
   style="fill:#00b3f0"
   d="m 1004.72,351.226 c -11.108,0.09 -21.178,9.574 -21.446,21.13 l -0.003,0.18 c -0.345,55.951 -0.486,111.908 -0.374,167.957 0.108,13.761 5.554,27.375 14.503,37.652 0,0 0.045,0.037 0.251,0.358 l -0.104,-0.186 c 0.209,0.234 0.421,0.464 0.634,0.694 17.579,18.785 48.149,23.866 71.319,9.826 47.03,-28.783 94.04,-57.615 140.93,-86.639 12.87,-8.086 22.29,-21.41 25.55,-36.394 l 5.14,-23.928 c -5.18,7.468 -11.97,13.727 -19.85,18.291 l -148.71,85.506 c -10.33,5.607 -24.36,3.158 -32.05,-5.998 -3.83,-4.554 -5.97,-10.443 -6.03,-16.415 0,-1.723 0.02,-3.446 0.02,-5.17 l 0.56,-152.609 c -6.88,-4.016 -13.57,-8.478 -20.66,-12.003 -0.85,-0.422 -1.73,-0.788 -2.62,-1.095 -2.27,-0.774 -4.66,-1.157 -7.06,-1.157 z" />
                        </g>
                        <g
   id="g196"
   transform="matrix(0.996011,0.575047,-0.575047,0.996011,5196.75,-441.893)">
                            <path
   inkscape:connector-curvature="0"
   id="path194"
   style="fill:#e10271"
   d="m 1188.31,399.353 c 0.14,9.026 -4.81,17.918 -12.72,22.584 -7,4.073 -14.09,8.009 -21.14,12.013 l -115.71,65.745 c -0.03,7.849 -0.09,15.697 -0.09,23.546 0.08,9.313 6.76,18.107 15.69,20.627 5.36,1.514 11.27,0.835 16.19,-1.833 49.69,-28.572 99.55,-56.842 149.07,-85.718 18.25,-10.755 29.63,-32.341 27.99,-53.554 -1.4,-18.125 -11.93,-35.215 -27.82,-44.645 -48.58,-28.572 -98.76,-54.639 -149.62,-79.162 l -1.4,-0.674 c -12.98,-6.049 -28.03,-7.013 -41.68,-2.666 l -25.45,8.189 c 0.26,0.019 0.53,0.041 0.79,0.063 8.78,0.783 17.41,3.476 25.1,7.841 49.1,28.285 98.04,56.847 147.06,85.27 2.2,1.279 4.31,2.731 6.13,4.515 0.15,0.15 0.13,0.13 0.14,0.141 4.59,4.605 7.31,11.031 7.46,17.568 0.01,0.05 0.01,0.1 0.01,0.15 z" />
                        </g>
                    </g>
                </g>
            </g>
    </g>
</svg>